<?xml version="1.0" encoding="UTF-8" standalone="no"?>
<!-- Created with Inkscape (http://www.inkscape.org/) -->

<svg
   xmlns:dc="http://purl.org/dc/elements/1.1/"
   xmlns:cc="http://creativecommons.org/ns#"
   xmlns:rdf="http://www.w3.org/1999/02/22-rdf-syntax-ns#"
   xmlns:svg="http://www.w3.org/2000/svg"
   xmlns="http://www.w3.org/2000/svg"
   xmlns:sodipodi="http://sodipodi.sourceforge.net/DTD/sodipodi-0.dtd"
   xmlns:inkscape="http://www.inkscape.org/namespaces/inkscape"
   width="981.86658"
   height="248.6167"
   id="svg2"
   version="1.1"
   inkscape:version="0.48.4 r9939"
   inkscape:export-filename="/home/lluis/Escritorio/TFM/Informe/images/moveit_logo.png"
   inkscape:export-xdpi="90"
   inkscape:export-ydpi="90"
   sodipodi:docname="Nuevo documento 1">
  <defs
     id="defs4">
    <clipPath
       clipPathUnits="userSpaceOnUse"
       id="clipPath3924">
      <rect
         style="fill:#000000;fill-opacity:0;stroke:#000000;stroke-width:0.92677808;stroke-miterlimit:4;stroke-opacity:1;stroke-dasharray:none;stroke-dashoffset:0"
         id="rect3926"
         width="987.99341"
         height="255.63281"
         x="-169.73773"
         y="-403.29974" />
    </clipPath>
    <clipPath
       clipPathUnits="userSpaceOnUse"
       id="clipPath3930">
      <rect
         style="fill:#000000;fill-opacity:0;stroke:#000000;stroke-width:0.94143444;stroke-miterlimit:4;stroke-opacity:1;stroke-dasharray:none;stroke-dashoffset:0"
         id="rect3932"
         width="989.99915"
         height="251.57756"
         x="-169.73041"
         y="-399.2518" />
    </clipPath>
  </defs>
  <sodipodi:namedview
     id="base"
     pagecolor="#ffffff"
     bordercolor="#666666"
     borderopacity="1.0"
     inkscape:pageopacity="0.0"
     inkscape:pageshadow="2"
     inkscape:zoom="0.32"
     inkscape:cx="878.76239"
     inkscape:cy="603.68524"
     inkscape:document-units="px"
     inkscape:current-layer="layer1"
     showgrid="false"
     inkscape:window-width="1301"
     inkscape:window-height="744"
     inkscape:window-x="59"
     inkscape:window-y="24"
     inkscape:window-maximized="1"
     fit-margin-top="0"
     fit-margin-left="0"
     fit-margin-right="0"
     fit-margin-bottom="0" />
  <metadata
     id="metadata7">
    <rdf:RDF>
      <cc:Work
         rdf:about="">
        <dc:format>image/svg+xml</dc:format>
        <dc:type
           rdf:resource="http://purl.org/dc/dcmitype/StillImage" />
        <dc:title></dc:title>
      </cc:Work>
    </rdf:RDF>
  </metadata>
  <g
     inkscape:label="Capa 1"
     inkscape:groupmode="layer"
     id="layer1"
     transform="translate(96.550115,-319.66199)">
    <g
       id="g3934"
       transform="translate(70.710678,715.94562)">
      <path
         clip-path="url(#clipPath3924)"
         style="fill:#5ba9d4"
         d="m 233.83357,140.53368 c -1.2983,-1.29835 -1.8048,-24.16072 -0.6045,-27.28865 0.3429,-0.89341 2.4804,-2.55765 4.75,-3.6983 2.2697,-1.14065 4.854,-2.7118 5.743,-3.49145 1.8553,-1.62701 12.7044,-3.80306 17.8837,-3.58698 13.9798,0.58321 27.952,3.75345 35.7319,8.10742 1.5636,0.87505 1.4211,1.12425 -1.2319,2.15485 -1.65,0.64095 -4.024,1.56584 -5.2756,2.05531 -5.4201,2.11964 -3.1847,6.68275 4.6267,9.4445 2.5569,0.90401 10.1588,3.13789 16.8932,4.96418 11.7959,3.19894 18.2485,5.93583 18.9092,8.02045 0.1727,0.54495 -0.1121,1.66583 -0.6328,2.49083 -0.8157,1.29232 -7.497,1.53847 -48.2559,1.77784 -36.3662,0.21357 -47.5932,-0.006 -48.537,-0.95 z m 149.5222,0.0921 c -0.9625,-0.5606 -1.75,-1.53042 -1.75,-2.15514 0,-4.87298 -14.6507,-10.17566 -39.5,-14.29666 -21.7172,-3.60157 -29.4155,-6.15001 -23.75,-7.8622 0.9625,-0.29088 7.2295,-0.99372 13.9266,-1.56187 6.6971,-0.56815 15.0221,-1.76638 18.5,-2.66272 8.804,-2.26906 26.2005,-2.40665 30.8234,-0.24379 3.4794,1.6279 13.6445,3.90646 25.9239,5.81102 3.5332,0.548 6.7888,1.57126 7.2347,2.27391 1.3087,2.06223 1.0099,19.20907 -0.3586,20.57755 -1.5077,1.50769 -28.4885,1.61188 -31.05,0.1199 z M 281.91097,78.187077 c -2.0577,-1.50464 -1.0454,-4.47491 1.7766,-5.21287 2.7192,-0.71111 3.8943,-4.02734 3.2169,-9.07825 -0.4165,-3.10528 -1.0325,-4.1563 -2.5711,-4.38689 -5.043,-0.75577 -4.2476,-6.80323 0.8948,-6.80323 1.4035,0 2.3776,-0.59039 2.3776,-1.44098 0,-2.16784 -1.6134,-2.72975 -3.0092,-1.04801 -0.6796,0.81894 -2.0255,1.48899 -2.9908,1.48899 -2.6767,0 -3.441,1.59804 -6.4571,13.5 -1.5332,6.05 -3.2376,11.5625 -3.7877,12.25 -1.7024,2.12771 -4.7358,1.43116 -5.785,-1.32835 -0.8411,-2.21217 -1.3974,-2.48673 -3.9174,-1.93325 -2.7818,0.611 -2.9697,0.4433 -3.5526,-3.17165 -1.2925,-8.01568 -1.5732,-8.81424 -2.5536,-7.2646 -0.5038,0.79632 -0.9229,2.65321 -0.9313,4.12642 -0.018,3.16439 -2.3625,5.82143 -5.1364,5.82143 -1.088,0 -3.3477,0.70818 -5.0215,1.57374 -1.6738,0.86555 -3.339,1.2956 -3.7003,0.95567 -0.3614,-0.33994 -2.0071,-5.62726 -3.6571,-11.7496 -2.6783,-9.93776 -3.3217,-11.30907 -6,-12.78704 -2.0501,-1.13132 -3,-2.42133 -3,-4.07414 0,-2.37682 0.1537,-2.41863 8.891,-2.41863 7.2912,0 9.0845,0.30681 9.9665,1.70506 0.8462,1.34147 0.5821,2.23028 -1.2384,4.16816 -1.8603,1.98018 -2.1822,3.11635 -1.6419,5.79494 1.856,9.20085 2.986,9.09544 4.4826,-0.41816 1.7302,-10.99898 2.2029,-11.75 7.3963,-11.75 2.4194,0 4.865,0.5625 5.4346,1.25 0.5695,0.6875 1.5315,4.81936 2.1376,9.1819 0.6062,4.36255 1.3448,8.17452 1.6413,8.47104 0.8842,0.88425 2.176,-1.91095 2.8601,-6.18865 0.5306,-3.31824 0.2527,-4.42339 -1.6108,-6.40704 -1.7653,-1.87912 -2.0203,-2.7656 -1.1801,-4.10219 0.841,-1.33765 2.8479,-1.76798 9.3135,-1.99707 5.3195,-0.18848 8.7513,0.13107 9.6793,0.90128 1.1482,0.95285 1.8417,0.75983 3.4421,-0.958 2.4532,-2.63319 5.0749,-2.74948 7.2713,-0.32253 1.9442,2.14829 2.1193,4.30699 0.4821,5.94413 -0.8972,0.89717 -0.8972,1.77799 0,3.74706 0.6451,1.4158 1.1729,5.90144 1.1729,9.96811 0,4.51926 0.4498,7.67192 1.1569,8.10895 1.9844,1.22641 10.0601,0.66758 10.9642,-0.7587 0.9706,-1.53126 1.1872,-16.87132 0.2719,-19.2565 -0.3338,-0.86999 -1.443,-1.58179 -2.4648,-1.58179 -2.3065,0 -4.1061,-3.09418 -2.9178,-5.01681 1.0976,-1.77607 13.0277,-1.52247 14.1867,0.30158 0.4248,0.66837 0.7792,6.73887 0.7876,13.48998 0.015,12.27276 0.016,12.27491 2.5987,13.25697 1.4979,0.56948 3.9141,0.63742 5.75,0.16168 l 3.1666,-0.82054 0,-10.39134 c 0,-10.26115 -0.031,-10.39869 -2.5,-10.97743 -3.2089,-0.75226 -3.9088,-4.44736 -1.1246,-5.9374 1.2544,-0.67133 3.9724,-0.78512 7.3107,-0.30606 l 5.3139,0.76258 0.5,13.4884 c 0.4115,11.10079 0.7655,13.48839 2,13.48839 1.143,0 1.5347,-1.37234 1.646,-5.76688 0.1587,-6.26673 1.7993,-9.66833 5.9859,-12.4115 3.5082,-2.2987 11.0559,-2.20984 15.0977,0.17774 3.0373,1.79417 3.2812,1.80079 5.1174,0.13905 1.4674,-1.32791 3.3045,-1.67245 7.6871,-1.44167 6.6105,0.34811 8.8815,2.30684 6.7086,5.78624 -1.441,2.30746 -1.5947,5.91286 -0.3367,7.89915 1.0039,1.58519 1.5248,0.33905 2.6673,-6.38213 0.8185,-4.81455 2.9522,-7.5 5.9592,-7.5 3.008,0 4.4572,2.00095 5.8196,8.0352 0.6313,2.79632 1.5979,5.16984 2.1479,5.27451 1.7008,0.32366 1.7443,-5.86207 0.051,-7.26733 -2.1046,-1.74667 -1.9507,-3.75815 0.3832,-5.0072 3.0023,-1.60678 12.6027,-1.29798 14.0551,0.45209 1.5834,1.90776 0.5703,4.55361 -2.0009,5.22599 -1.429,0.37369 -2.4469,2.13413 -3.5589,6.15506 -3.9565,14.30561 -3.5653,13.60169 -7.7494,13.94621 -4.9279,0.40576 -6.3074,-0.84314 -7.1519,-6.4746 -1.3193,-8.79767 -2.8415,-9.40564 -4.0116,-1.60223 -0.952,6.34886 -2.109,8.2623 -4.9961,8.2623 -4.0357,0 -7.4451,-3.90779 -9.1541,-10.49217 -0.8554,-3.29569 -1.9933,-6.81053 -2.5286,-7.81076 -1.6358,-3.05653 -3.3118,-1.37856 -2.9957,2.99926 0.8222,11.3877 -10.2849,18.97196 -20.2065,13.79751 -3.5078,-1.82947 -5.0694,-1.88108 -6.4536,-0.21327 -0.8162,0.98354 -5.5416,1.19685 -20.3724,0.91963 -23.6763,-0.44256 -20.6279,-0.44775 -31.092,0.0529 -5.8387,0.27935 -9.3286,0.0207 -10.4125,-0.77185 z m 78.1234,-7.05267 c 3.2273,-3.22734 0.689,-12.42857 -3.4286,-12.42857 -2.1369,0 -5,4.10644 -5,7.17126 0,5.66492 4.9398,8.7461 8.4286,5.25731 z m 379.2706,-81.43395 c -4.5292,-0.82973 -6.1975,-2.25376 -5.3198,-4.54086 0.4712,-1.22804 1.2476,-1.48272 2.8828,-0.94565 1.2308,0.40427 4.086,0.94552 6.345,1.20279 3.5656,0.40609 4.3896,0.1086 6.25,-2.25643 1.1785,-1.4983 2.1428,-3.7885 2.1428,-5.08933 0,-2.00055 -0.501,-2.366 -3.25,-2.37072 -10.3263,-0.0177 -14.3702,-4.21767 -13.4829,-14.00307 0.9229,-10.17821 5.8692,-16.87387 14.1031,-19.09103 4.2795,-1.15236 12.3785,-0.55164 13.966,1.03588 1.21,1.20997 -4.865,34.45386 -7.1268,38.99927 -3.015,6.05931 -8.6999,8.48998 -16.5102,7.05915 z m 13.6672,-21.24462 c 1.5995,-2.54795 4.9023,-19.50616 4.0634,-20.86353 -0.3013,-0.48756 -2.2606,-0.88647 -4.354,-0.88647 -4.5909,0 -8.7457,2.96583 -10.697,7.63578 -1.6969,4.06141 -1.8087,13.53437 -0.1788,15.16422 0.66,0.66 3.1246,1.2 5.4769,1.2 3.3502,0 4.5831,-0.48755 5.6895,-2.25 z m -387.9663,5.85035 c -0.7997,-2.08403 3.4753,-24.75289 5.1512,-27.31517 0.7968,-1.21814 2.2872,-2.66358 3.3121,-3.21208 2.7263,-1.45906 31.1364,-1.68862 33.7716,-0.27289 3.2874,1.76623 3.5251,5.01446 1.3059,17.85195 -2.1169,12.24552 -3.6811,15.63828 -6.2334,13.52007 -1.185,-0.98343 -1.0847,-2.96335 0.6716,-13.26534 2.031,-11.913 2.0335,-12.13205 0.1515,-13.50813 -2.1371,-1.56274 -7.2969,-1.83284 -9.4128,-0.49273 -0.8226,0.52096 -2.2752,5.9132 -3.5878,13.31779 -2.3711,13.37536 -2.8565,14.77618 -5.1204,14.77618 -2.5349,0 -2.6035,-2.42857 -0.4096,-14.5 1.1714,-6.44559 1.8676,-12.40255 1.5472,-13.23768 -0.7708,-2.00862 -9.4333,-1.13862 -11.0795,1.11275 -0.6347,0.86795 -1.9601,6.20113 -2.9453,11.85151 -0.9853,5.65038 -2.1697,11.28592 -2.6321,12.52342 -0.9352,2.50265 -3.6582,3.01834 -4.4902,0.85035 z m 55.3657,-1.51996 c -3.1571,-2.82241 -3.2625,-3.16742 -3.166,-10.36365 0.1739,-12.95935 6.2205,-20.17684 16.7702,-20.01769 4.335,0.0654 5.4307,0.5135 7.8349,3.20427 2.3081,2.58318 2.7941,4.04023 2.7895,8.36246 0,2.87882 -0.4704,6.90775 -1.0384,8.95317 -3.066,11.03937 -15.8105,16.4589 -23.1902,9.86144 z m 14.6456,-5.15746 c 2.6143,-3.10695 3.0417,-4.3164 3.9718,-11.23998 0.9578,-7.12944 -3.1708,-11.21529 -9.1715,-9.0766 -4.4287,1.57842 -6.6093,5.73761 -7.0443,13.43644 -0.4687,8.29467 0.5108,9.95721 5.8661,9.95721 3.0031,0 4.3256,-0.63803 6.3779,-3.07707 z m 23.9219,7.30425 c -1.0983,-0.6987 -6.3333,-24.88882 -6.3333,-29.2651 0,-2.27159 2.6268,-3.73522 4.0856,-2.27643 0.5232,0.52317 1.6255,4.97042 2.4496,9.88278 2.3232,13.84772 2.3094,13.80544 4.0434,12.36631 0.8229,-0.68297 3.9929,-6.12268 7.0444,-12.08825 4.1362,-8.08625 6.0353,-10.84649 7.4625,-10.84649 1.1599,0 1.9111,0.68975 1.9059,1.75 -0.012,2.46682 -13.6515,27.3831 -16.1487,29.5 -2.2914,1.94257 -2.8139,2.05579 -4.5094,0.97718 z m 29.087,-1.11265 c -4.1864,-2.55284 -5.8248,-6.90631 -5.1306,-13.63242 1.2789,-12.3913 9.869,-19.82311 20.2103,-17.48514 4.8986,1.10749 7.5,4.11172 7.5,8.66156 0,6.05258 -5.757,9.33709 -18.5,10.55479 -3.6805,0.35171 -4.6092,3.8968 -1.8304,6.98727 1.6124,1.79326 2.6417,1.96835 8.6435,1.47042 6.0055,-0.49823 6.775,-0.36704 6.4912,1.10676 -0.8085,4.198 -11.8892,5.68748 -17.384,2.33676 z m 15.5678,-19.73296 c 1.9528,-1.88621 2.2611,-2.76293 1.4331,-4.07554 -1.9128,-3.03238 -4.0347,-3.75381 -8.0929,-2.75152 -2.9608,0.73123 -4.2815,1.80083 -5.8283,4.71988 -1.7471,3.297 -1.8103,3.89755 -0.5,4.74816 2.4655,1.60057 10.2316,0.0214 12.9881,-2.64098 z m 13.2141,20.76458 c -1.0459,-0.66344 -0.8158,-3.66711 1.1853,-15.47551 1.3657,-8.05876 2.7638,-15.10642 3.1068,-15.66147 1.0658,-1.72449 4.5055,-1.15919 4.5078,0.74083 0,3.92512 -4.3786,28.84027 -5.2778,30 -1.1277,1.45442 -1.7444,1.52378 -3.5221,0.39615 z m 20.0332,-0.1606 c -4.3363,-1.78441 -4.5665,-5.04288 -1.548,-21.90977 1.9406,-10.84358 3.327,-16.09018 4.5838,-17.34699 2.3511,-2.3511 4.0744,-1.20689 3.3837,2.24666 -0.6735,3.36736 0.8498,5.02455 4.6184,5.02455 4.531,0 3.208,3.30657 -1.6382,4.0943 -2.1139,0.3436 -4.2124,1.22176 -4.6634,1.95148 -1.0975,1.77582 -3.3159,16.94238 -2.8391,19.41037 0.2108,1.09126 1.4809,2.21655 2.8726,2.54509 3.4391,0.81185 3.435,4.42026 0,4.70747 -1.375,0.11479 -3.519,-0.21063 -4.7645,-0.72316 z m 23.8045,-0.43751 c -2.6565,-3.20083 1.2452,-8.11777 4.7101,-5.93574 2.4658,1.55288 2.7919,4.51827 0.6676,6.0716 -2.3301,1.70383 -3.8835,1.66459 -5.3777,-0.13586 z m 14.2894,-0.13221 c -0.8925,-2.32578 2.4459,-21.1192 4.6276,-26.05143 1.585,-3.58302 2.5235,-4.41667 6.0374,-5.36286 5.6038,-1.50894 8.5057,-1.0035 8.5057,1.4815 0,1.52275 -0.8862,2.12708 -3.8179,2.60362 -2.0999,0.34132 -4.4489,1.25154 -5.2201,2.02272 -0.7711,0.77118 -2.3052,6.76656 -3.4089,13.32306 -1.8079,10.7395 -2.8963,13.50447 -5.3345,13.55225 -0.4298,0.008 -1.0549,-0.69756 -1.3893,-1.56886 z m 26.7808,0.24631 c -3.3381,-1.93066 -5.0332,-5.42777 -5.0747,-10.46932 -0.093,-11.3274 4.7207,-19.21514 12.9286,-21.1842 4.3688,-1.04806 5.4548,-0.96774 8.7539,0.64745 5.0649,2.47971 6.4867,5.50924 5.9238,12.62272 -0.5334,6.74078 -3.9884,14.28029 -7.8172,17.05887 -3.3845,2.45612 -11.4956,3.18621 -14.7144,1.32448 z m 12.649,-5.91214 c 2.9675,-3.16791 4.2409,-7.06715 4.2409,-12.98636 0,-5.89873 -1.9394,-8.76364 -5.9325,-8.76364 -3.3617,0 -6.6713,2.33321 -8.6,6.06282 -2.0236,3.91329 -2.3961,14.1038 -0.5951,16.27937 2.0722,2.50308 8.3047,2.16406 10.8867,-0.59219 z m 16.7792,5.9017 c -2.8552,-2.08778 -0.9191,-3.6517 4.5207,-3.6517 3.6077,0 5.4807,-0.5397 6.941,-2 1.1,-1.1 2,-2.34987 2,-2.77749 0,-1.77905 -3.2452,-5.22251 -4.9219,-5.22251 -0.9946,0 -2.9941,-0.93266 -4.4433,-2.07258 -3.3483,-2.63384 -3.6217,-8.40312 -0.5812,-12.26846 2.4584,-3.12529 8.3243,-4.91981 12.4634,-3.81283 3.9111,1.04599 3.9002,3.57004 -0.017,3.92808 -5.5145,0.50403 -7.4344,1.23478 -8.5063,3.2376 -1.5182,2.83675 0.2496,5.58335 4.4956,6.98463 6.3775,2.1048 8.2307,7.67045 4.559,13.69219 -2.8522,4.67766 -12.3987,6.96924 -16.5099,3.96307 z m 34.0331,-0.22313 c -1.9097,-1.90971 -1.9441,-2.53659 -0.2654,-4.83241 1.9162,-2.62061 6.1005,-1.75814 6.539,1.34781 0.212,1.5023 -0.3433,2.94719 -1.4412,3.75 -2.2958,1.67874 -2.9227,1.64431 -4.8324,-0.2654 z m 18.7311,0.37439 c -3.7261,-1.80029 -5.642,-7.28106 -4.9291,-14.10124 1.2079,-11.55712 7.3204,-18.08634 16.9318,-18.08634 4.3225,0 5.3314,0.41346 7.8284,3.20809 2.3995,2.68549 2.8664,4.08098 2.8664,8.56658 0,6.30453 -2.1766,13.08514 -5.2838,16.46036 -4.2534,4.62029 -12.2669,6.43918 -17.4137,3.95255 z m 12.3982,-6.05296 c 3.2893,-3.61129 4.3039,-6.30342 4.5594,-12.0975 0.1843,-4.18114 -0.2013,-5.929 -1.6651,-7.54693 -3.7433,-4.13749 -10.5647,-1.81577 -13.2006,4.493 -1.7093,4.09074 -1.8349,14.56097 -0.1944,16.20143 2.0688,2.06882 8.2203,1.45371 10.5007,-1.05 z m 16.6571,6.20781 c -0.7229,-0.72291 -0.4908,-4.27843 0.7575,-11.60618 2.1485,-12.61167 3.3628,-16.56937 5.7454,-18.72559 2.1534,-1.94879 10.073,-3.09347 12.075,-1.7453 2.1427,1.44296 -0.4475,4.11926 -3.9867,4.11926 -2.9837,0 -5.4964,1.89125 -6.3186,4.75592 -0.2753,0.95924 -1.2441,6.24408 -2.153,11.74408 -1.9204,11.62188 -3.3252,14.25216 -6.1196,11.45781 z m -190.1774,-41.19759 c 0.3362,-2.35631 3.382,-3.59783 4.9586,-2.02122 1.5709,1.57091 -0.2066,4.261 -2.8156,4.261 -1.9788,0 -2.3998,-0.43992 -2.143,-2.23978 z m -373.9304,-10.79138 c -2.3673,-0.95153 -2.9988,-3.38801 -1.171,-4.51767 0.5934,-0.36677 3.0871,-0.10461 5.5415,0.58258 5.6302,1.57635 8.9261,0.27399 10.8429,-4.28444 1.835,-4.36388 0.5024,-5.74931 -5.5301,-5.74931 -3.6574,0 -5.4994,-0.58336 -7.6276,-2.41568 -2.5762,-2.21809 -2.8019,-2.9747 -2.7597,-9.249997 0.055,-8.12523 2.5801,-13.80326 7.9662,-17.91144 2.798,-2.13415 4.927,-2.78688 10.2592,-3.14536 10.6397,-0.71532 10.8403,-0.36819 8.2389,14.25946 -4.3218,24.301347 -4.9807,26.633437 -8.5267,30.179357 -2.9854,2.98545 -3.8149,3.2779 -9.1336,3.22027 -3.2175,-0.0349 -6.8625,-0.47036 -8.1,-0.96777 z m 16.6617,-18.89309 c 1.4819,-0.9381 5.4856,-20.623837 4.5142,-22.195677 -1.1254,-1.82093 -8.9757,-0.94819 -11.3476,1.26155 -4.9146,4.5787 -6.899,16.18907 -3.4233,20.029637 1.7667,1.95221 7.7658,2.48124 10.2567,0.90449 z m -127.699099,4.41764 c -4.4943,-1.95268 -6.5891,-7.07862 -5.6756,-13.888187 1.2829,-9.56276 4.3676,-14.70283 10.3148,-17.18776 4.084,-1.70641 6.8023,-1.78258 11.0293,-0.30903 10.8419,3.77949 6.4396,28.486507 -5.6752,31.851177 -4.7675,1.32409 -6.0058,1.26632 -9.9933,-0.4662 z m 11.4643,-5.74339 c 2.8913,-3.211717 3.2289,-3.980467 4.3546,-9.916427 0.7234,-3.81428 0.6844,-6.10523 -0.1378,-8.09006 -2.1148,-5.10562 -9.275,-4.81488 -13.2607,0.53846 -2.8515,3.82999 -3.611,15.597157 -1.1646,18.043607 2.4403,2.44032 7.7637,2.14017 10.2085,-0.57558 z m 24.8319,5.88013 c -1.2247,-0.89554 -2.4876,-4.9522 -4.1127,-13.211247 -3.0076,-15.28429 -3.0697,-18.41889 -0.3647,-18.41889 2.498,0 2.5681,0.18288 4.7625,12.42887 0.9786,5.46088 2.2827,10.09667 2.8979,10.30176 0.6153,0.20508 3.8915,-4.8254 7.2806,-11.17887 4.6012,-8.62603 6.6514,-11.55176 8.0947,-11.55176 1.0631,0 1.9329,0.68097 1.9329,1.51326 0,2.45349 -15.0002,29.416487 -16.9438,30.456677 -1.2155,0.65048 -2.3405,0.54271 -3.5474,-0.3398 z m 151.491199,0.0912 c -2.8727,-1.43537 -5.9962,-7.03899 -5.9985,-10.761247 0,-4.651 3.0679,-14.40449 5.2978,-16.82699 4.5274,-4.9186 11.3663,-6.33468 17.2073,-3.56295 4.4681,2.12025 5.9287,5.99119 5.133,13.60387 -0.871,8.33284 -4.0135,13.758107 -9.6015,16.575967 -5.0209,2.53189 -8.3736,2.80241 -12.0381,0.97135 z m 10.8831,-5.35204 c 3.2359,-2.26652 5.1169,-7.326827 5.1169,-13.765757 0,-6.21419 -1.6244,-8.60355 -5.8489,-8.60355 -6.3051,0 -10.1511,6.03107 -10.1511,15.91819 0,4.642587 0.3919,6.210707 1.75,7.001707 2.6123,1.52156 6.5102,1.28658 9.1331,-0.55059 z m 20.3451,5.4005 c -1.2494,-0.60216 -2.565,-2.25921 -2.9236,-3.68232 -0.5475,-2.17312 5.0076,-39.945837 6.447,-43.837497 0.2543,-0.6875 1.5981,-1.25 2.9862,-1.25 2.3647,0 2.4831,0.23644 1.8773,3.75 -0.3556,2.0625 -0.9256,5.6625 -1.2667,8 l -0.6203,4.25 4.4867,0 c 9.2791,0 13.7852,3.70534 13.7852,11.33552 0,5.3827 -3.0964,13.624297 -6.4577,17.188347 -4.4952,4.7663 -13.0966,6.76044 -18.3141,4.24595 z m 12.6575,-5.40231 c 5.4764,-3.835837 8.4564,-19.043687 4.18,-21.332317 -2.6822,-1.4355 -9.6094,-1.29805 -10.8264,0.21482 -1.6486,2.0495 -4.1503,19.013267 -3.0969,20.999997 1.1925,2.24887 6.6071,2.31417 9.7433,0.1175 z m 23.5354,5.21358 c -4.153,-1.80834 -5.7576,-6.04635 -5.2329,-13.820977 0.8156,-12.08623 6.3095,-18.117 16.5895,-18.21087 4.6988,-0.0429 5.7024,0.31142 7.8071,2.75653 2.0403,2.37027 2.4118,3.84481 2.3932,9.5 -0.05,15.187997 -10.3635,24.649267 -21.5569,19.775317 z m 11.2961,-5.35332 c 4.5559,-3.550167 6.8026,-15.612897 3.7261,-20.005247 -1.7467,-2.49379 -6.8572,-2.99886 -9.5185,-0.94071 -4.9666,3.84118 -7.5918,15.52513 -4.536,20.188857 1.9946,3.04417 6.9293,3.40589 10.3284,0.7571 z m 22.7828,6.053 c -6.1622,-1.50121 -6.5709,-4.46633 -3.3371,-24.212047 1.5717,-9.59685 2.7293,-13.96092 4.0548,-15.28648 2.4434,-2.44333 3.7823,-1.46035 3.7823,2.77678 0,2.81082 0.3783,3.44098 2.0657,3.44098 1.1362,0 2.9194,0.45686 3.9628,1.01525 2.8096,1.50369 1.3317,3.98196 -2.3855,4.00007 -1.7287,0.008 -3.7236,0.38363 -4.4331,0.83379 -0.7095,0.45016 -2.0354,5.12824 -2.9463,10.39573 -1.7706,10.238957 -1.2277,12.755167 2.7518,12.755167 2.5671,0 3.2727,2.77546 1.0131,3.98475 -1.0434,0.55839 -2.0391,0.96305 -2.2128,0.89925 -0.1736,-0.0638 -1.2157,-0.33526 -2.3157,-0.60324 z m 17,0.0364 c -3.0896,-0.78977 -3.9616,-2.05598 -2.5704,-3.73229 0.8273,-0.99684 2.2095,-1.30701 4.1208,-0.92474 4.0507,0.81013 7.6977,-0.32086 9.0236,-2.79839 1.6173,-3.021857 -0.2341,-6.518317 -3.8748,-7.317947 -6.7501,-1.48256 -8.9795,-7.1118 -5.2433,-13.23928 2.3649,-3.87855 8.651,-6.18049 12.8474,-4.70467 4.3719,1.53749 3.3939,3.8506 -1.7837,4.21895 -5.5981,0.39828 -7.204,1.69366 -6.8207,5.50192 0.2511,2.49415 0.9656,3.21755 4.3011,4.35463 2.2,0.74999 4.5625,2.11586 5.25,3.03529 2.8029,3.74848 0.7095,11.483317 -3.7293,13.778667 -3.1454,1.62656 -8.7991,2.52357 -11.5207,1.82786 z m 118.7841,-0.0184 c -1.2187,-0.23589 -3.4091,-1.84704 -4.8676,-3.58032 -2.447,-2.90813 -2.6163,-3.69442 -2.1922,-10.184917 0.6198,-9.48674 3.4924,-15.04794 9.0844,-17.5867 5.0724,-2.30293 7.6594,-2.40481 12.2594,-0.48279 5.3686,2.24313 7.0156,7.06214 5.4355,15.90368 -1.4543,8.137777 -5.8632,13.943457 -11.8521,15.606907 -3.7509,1.04186 -4.0876,1.05574 -7.8674,0.32414 z m 10.1791,-6.67101 c 4.2786,-4.278667 5.9504,-15.164487 2.9801,-19.405217 -2.243,-3.20225 -7.786,-3.03484 -10.9038,0.3293 -4.2885,4.6274 -5.6732,16.17232 -2.4111,20.102877 1.8443,2.22234 7.6637,1.64407 10.3348,-1.02696 z m 38.0368,6.65301 c -4.837,-1.17837 -5.7848,-3.25699 -5.1438,-11.280757 0.7891,-9.87809 4.1244,-26.66932 5.6666,-28.52754 2.307,-2.77976 3.9772,-1.71836 3.9772,2.52753 0,3.27648 0.3469,4 1.9182,4 3.2411,0 5.0818,1.12542 5.0818,3.107 0,1.4659 -0.7333,1.89646 -3.25,1.90832 -1.7875,0.008 -3.8534,0.39774 -4.5908,0.86514 -0.7527,0.47704 -2.0284,5.05729 -2.9083,10.44148 -1.6844,10.306577 -1.1472,12.678067 2.8715,12.678067 2.324,0 2.5613,3.52367 0.2958,4.39301 -0.87,0.33385 -1.6575,0.55479 -1.75,0.49099 -0.092,-0.0638 -1.0682,-0.33526 -2.1682,-0.60324 z m 55.8255,-0.70842 c -4.8041,-2.13728 -6.8085,-5.92976 -6.6553,-12.592247 0.2888,-12.56362 10.009,-22.01399 20.0732,-19.51603 4.7298,1.17396 7.2566,4.3573 7.2566,9.14216 0,5.6319 -3.4434,8.1902 -12.7629,9.4824 -3.7054,0.51378 -7.2996,1.1399 -7.9871,1.39138 -1.9475,0.71237 -1.472,4.298027 0.8822,6.652247 1.8819,1.88188 2.88,2.06244 8.5,1.53763 4.9514,-0.46236 6.3678,-0.29658 6.3678,0.7453 0,2.17085 -2.1771,3.32185 -7.5,3.96517 -3.3324,0.40275 -6.0588,0.13326 -8.1745,-0.80801 z m 11.5313,-18.672267 c 6.2762,-2.18791 4.8335,-8.90007 -1.9131,-8.90007 -4.3275,0 -11.0387,6.41927 -9.4309,9.02067 0.8119,1.31382 7.4311,1.24346 11.344,-0.1206 z m 56.4312,18.896417 c -3.6819,-1.778 -4.123,-5.28226 -2.1132,-16.787757 2.6183,-14.98942 2.6245,-15.00874 4.7852,-15.00874 1.0571,0 2.1661,0.39511 2.4646,0.87802 0.2984,0.48291 -0.3924,6.12323 -1.5352,12.53405 -2.3693,13.291087 -2.0099,14.587937 4.0419,14.587937 6.1404,0 6.9273,-1.26055 9.3755,-15.017877 2.1414,-12.03308 2.3107,-12.48212 4.7072,-12.48212 2.942,0 2.9435,0.0418 0.4934,14 -2.1226,12.092647 -3.5957,15.221097 -8.0417,17.078777 -3.948,1.64959 -10.9886,1.7577 -14.1777,0.21771 z m 54.9474,0.16697 c -4.0766,-1.63777 -4.4809,-5.05798 -2.1675,-18.337207 2.1261,-12.20452 3.8279,-15.78758 6.4605,-13.60272 0.9207,0.76414 0.8723,2.86819 -0.2124,9.23307 -2.5812,15.146317 -2.6215,15.670407 -1.3239,17.233827 1.6545,1.99358 8.4202,1.95444 10.435,-0.0604 1.7888,-1.78883 1.9648,-2.44832 4.1188,-15.430067 1.6374,-9.86873 3.4276,-13.42654 5.6416,-11.21247 0.9358,0.93577 0.8055,3.69353 -0.5886,12.45715 -2.174,13.666367 -3.5308,17.151647 -7.4705,19.188897 -3.2902,1.70144 -11.2701,1.98535 -14.893,0.52988 z m 58.0901,-0.42259 c -4.6368,-2.01691 -6.753,-5.84234 -6.61,-11.948947 0.3241,-13.84395 10.6834,-23.25564 21.6231,-19.64521 4.4718,1.47585 7.3346,6.53369 5.9868,10.5772 -1.4305,4.29124 -4.9811,6.26761 -13.8153,7.68981 -9.1161,1.46757 -10.3794,3.00789 -6.0324,7.354897 2.3574,2.35738 3.2273,2.58162 8.8188,2.27337 4.9996,-0.27562 6.2035,-0.0509 6.2035,1.15801 0,1.71246 -5.5483,3.87874 -10,3.90442 -1.65,0.01 -4.4285,-0.60409 -6.1745,-1.36355 z m 12.7242,-19.066547 c 5.4917,-2.83991 3.1242,-8.47432 -3.5609,-8.47432 -3.189,0 -8.4888,4.94661 -8.4888,7.92308 0,1.79823 0.6105,2.07692 4.5497,2.07692 2.5023,0 5.8773,-0.68656 7.5,-1.52568 z m -780.048199,17.275697 c 0,-4.46078 4.1738,-24.299467 5.5608,-26.450387 2.0103,-3.11774 7.3400998,-4.28763 19.5626998,-4.29404 13.3455002,-0.007 16.5984002,0.64272 18.6133002,3.71782 1.4754,2.25168 1.4595,3.37428 -0.1999,14.11145 -2.0304,13.138747 -2.7752,15.165157 -5.5736,15.165157 -2.384,0 -2.4282,-1.07676 -0.4646,-11.337967 0.8249,-4.31088 1.4998,-9.58981 1.4998,-11.73095 0,-4.34794 -1.7311,-5.3677 -8.0715,-4.75476 l -3.3481002,0.32368 -1.6398,8.5 c -0.9018,4.675 -2.0449,10.749997 -2.5402,13.499997 -0.7367,4.09116 -1.3094,5.05808 -3.15039995,5.31955 -2.83660005,0.40287 -2.92030005,-1.63654 -0.6129,-14.949477 0.91799995,-5.29645 1.38929995,-10.35895 1.04729995,-11.25 -0.84499995,-2.20213 -6.8488,-2.12094 -9.6083,0.12993 -1.6795,1.36997 -2.5817998,4.22935 -4.1550998,13.16718 -1.1053,6.279437 -2.2412,11.791937 -2.5243,12.249997 -0.2831,0.45805 -1.3882,0.83282 -2.4557,0.83282 -1.3467,0 -1.9405,-0.68894 -1.9395,-2.25 z m 117.0903,-1.93045 c 0.051,-2.37575 1.063,-9.490177 2.25,-15.809837 1.768099,-9.41359 2.493699,-11.55418 4.014399,-11.84379 1.0209,-0.19442 2.218,0.0262 2.6602,0.4903 0.4421,0.46408 -0.3956,7.59378 -1.8618,15.84378 -2.4587,13.835297 -2.8399,15.024807 -4.910099,15.319547 -2.0402,0.29046 -2.2362,-0.0736 -2.1527,-4 z m 15.908199,1.28546 c 0,-5.21185 3.8641,-23.248607 5.523,-25.780517 1.9671,-3.00216 5.3236,-4.3245 10.977,-4.3245 11.0277,0 12.1698,2.44219 9.2028,19.67932 -1.849,10.741887 -2.5048,12.855287 -4.083,13.157467 -1.0341,0.198 -2.197,-0.15264 -2.5842,-0.7792 -0.3873,-0.62657 0.1648,-6.30985 1.2268,-12.629507 2.215,-13.18124 1.8422,-14.42807 -4.3134,-14.42807 -4.6033,0 -6.653,1.84526 -7.5337,6.78215 -3.427,19.211017 -3.8665,20.710917 -6.1653,21.037397 -1.9092,0.27115 -2.25,-0.14006 -2.25,-2.71454 z m 84.3961,-1.35501 c 3.7582,-24.506947 5.5449,-28.050597 14.2075,-28.177997 4.2537,-0.0626 4.8964,0.1905 4.8964,1.928 0,1.59096 -0.7705,2.06369 -3.7672,2.31139 -4.6725,0.38622 -6.0828,2.4492 -7.6488,11.18861 -3.0768,17.170297 -3.0189,16.999997 -5.7827,16.999997 -2.4437,0 -2.5281,-0.18818 -1.9052,-4.25 z m 186.6524,1 c 0.027,-1.7875 1.0539,-8.871677 2.2827,-15.742617 1.8345,-10.25708 2.5606,-12.55545 4.0578,-12.84379 1.0029,-0.19314 2.2034,0.0288 2.6678,0.49322 0.7196,0.71961 -3.1468,26.447707 -4.5224,30.093187 -0.2594,0.6875 -1.3858,1.25 -2.503,1.25 -1.6351,0 -2.022,-0.63402 -1.9829,-3.25 z m 15.9515,1.73923 c 0,-2.90585 3.0841,-21.019047 4.1404,-24.316617 1.4712,-4.59309 6.0172,-7.1642 12.6753,-7.16888 10.7787,-0.008 11.9906,2.54809 9.1377,19.26911 -1.1351,6.653297 -2.2906,12.463717 -2.5677,12.912037 -0.2771,0.44831 -1.4357,0.81512 -2.5748,0.81512 -2.3124,0 -2.3142,0.10978 0.2903,-17.311657 1.4963,-10.00936 1.1865,-10.64584 -5.1962,-10.67303 -5.3821,-0.0229 -6.7116,2.20073 -8.883,14.85617 -1.0512,6.127257 -2.1878,11.587777 -2.5257,12.134487 -0.9672,1.565 -4.4963,1.15942 -4.4963,-0.51674 z m 37.057,-0.43226 c -2.6294,-2.6294 -2.5887,-4.55841 0.4668,-22.082237 1.772,-10.16279 3.0221,-14.84823 4.1963,-15.72849 2.0655,-1.54841 3.0285,-0.64095 3.4529,3.25375 0.2538,2.32873 0.8864,3.07738 2.827,3.34582 5.7392,0.79389 6.1752,5.15419 0.5154,5.15419 -1.7988,0 -3.8078,0.64741 -4.4645,1.4387 -1.2813,1.5438 -3.8395,16.96026 -3.2747,19.733837 0.1873,0.91989 1.7049,2.14813 3.3724,2.72942 3.965,1.38223 3.1906,3.51367 -1.4189,3.90501 -2.6036,0.22103 -4.1916,-0.26887 -5.6727,-1.75 z m 87.5309,1.08534 c -0.2915,-0.47173 0.3497,-5.98423 1.4249,-12.249997 4.2179,-24.58002 5.9981,-34.10094 6.54,-34.97784 0.3109,-0.50296 1.4966,-0.91448 2.635,-0.91448 1.9291,0 2.0169,0.35702 1.2918,5.25 -1.583,10.68079 -1.8548,10.17483 5.8186,10.83392 8.3424,0.71656 9.9918,2.10277 9.8676,8.29297 -0.094,4.68575 -2.9133,22.405577 -3.7906,23.825087 -0.2713,0.43891 -1.3667,0.79803 -2.4342,0.79803 -2.4367,0 -2.4586,-1.3603 -0.2468,-15.314797 1.9757,-12.46535 1.8921,-12.64455 -5.909,-12.66989 -5.8612,-0.019 -6.0897,0.36974 -8.218,13.98469 -0.9028,5.774997 -1.88,11.287497 -2.1717,12.249997 -0.5459,1.80155 -3.8649,2.41757 -4.8076,0.89231 z m 83.9937,-0.0103 c -0.2951,-0.4774 0.8326,-8.689897 2.506,-18.249997 1.6733,-9.56009 3.2966,-18.84186 3.6073,-20.62613 0.3107,-1.78427 1.5785,-4.33785 2.8174,-5.67462 2.8126,-3.03491 10.0603,-5.40862 11.6526,-3.81637 1.6039,1.6039 0.2375,4.23512 -2.1993,4.23512 -3.4813,0 -5.7423,1.79335 -6.9767,5.53356 -1.5554,4.71293 -0.863,6.07988 3.4936,6.89718 2.6816,0.50308 3.5568,1.12676 3.3183,2.3648 -0.1781,0.92482 -1.2186,1.81669 -2.3123,1.98192 -7.1469,1.07972 -7.1984,1.16996 -9.5592,16.72255 -0.6679,4.399997 -1.616,8.787497 -2.107,9.749997 -0.9424,1.84746 -3.3363,2.34535 -4.2407,0.88199 z m 58.5044,-0.78428 c -2.2322,-1.56353 -2.326,-2.06047 -1.7448,-9.249997 0.8797,-10.88344 4.246,-27.11351 5.9842,-28.85166 2.1088,-2.10885 3.6746,-0.69719 3.6746,3.31296 0,2.89722 0.3555,3.4434 2.25,3.45629 1.2375,0.008 2.8781,0.41301 3.6457,0.89908 2.207,1.39749 0.4945,4.08382 -2.6143,4.10093 -4.3963,0.0242 -5.1408,1.07391 -6.7589,9.52989 -2.1754,11.368747 -2.0621,12.424877 1.4775,13.760897 1.7863,0.67425 3,1.85282 3,2.91314 0,2.35088 -5.6253,2.43196 -8.914,0.12847 z m 51.6227,0.95948 c -0.9001,-1.51347 3.8949,-25.053227 5.6484,-27.729457 0.9611,-1.46685 2.8783,-3.09691 4.2603,-3.62237 3.7064,-1.40916 9.0845,-1.17469 9.6975,0.42277 0.7464,1.94508 -1.2554,3.62187 -4.3238,3.62187 -4.8954,0 -5.8644,1.76035 -8.2567,15 -2.0186,11.172097 -2.4863,12.532627 -4.4021,12.807187 -1.179,0.16895 -2.3596,-0.056 -2.6236,-0.5 z m -615.042,-38.973887 c -1.2284,-1.22836 -0.6836,-3.2539 1.1372,-4.22837 2.5275,-1.35271 4.5648,0.15799 3.7357,2.77019 -0.6438,2.02842 -3.46,2.87114 -4.8729,1.45818 z m 286.7133,-0.78544 c -0.8261,-2.15288 0.4238,-3.54789 3.179,-3.54789 2.6088,0 3.2075,1.83346 1.241,3.8 -1.6313,1.63132 -3.7435,1.51085 -4.42,-0.25211 z m 148.4244,-21.58741 c -19.212,-2.00905 -34.1072,-10.1188 -41.3998,-22.54039 -6.325,-10.77344 -9.0645,-28.49344 -7.3374,-47.46113 4.3792,-48.09238 27.9091,-79.74247 65.6686,-88.33067 8.1759,-1.85959 30.0682,-2.18935 37.2642,-0.56131 2.475,0.55995 8.0004,2.65099 12.2788,4.64676 4.7306,2.20678 8.1366,3.2677 8.692,2.70747 0.5022,-0.50667 1.3688,-3.62121 1.9256,-6.92121 1.6426,-9.73512 7.868,-45.71105 10.9635,-63.35734 1.7851,-10.17586 3.393,-16.6889 4.2548,-17.23469 0.7619,-0.48253 9.3869,-0.88423 19.1667,-0.89265 14.9129,-0.0128 17.8744,0.22728 18.3584,1.48851 0.5223,1.36099 -0.922,10.61928 -8.1893,52.49618 -7.1266,41.06592 -15.734,90.31901 -18.0001,102.99999 -5.3953,30.19142 -6.4343,36.05688 -10.0086,56.5 -2.1208,12.12965 -4.2721,21.6336 -5.0931,22.5 -1.176,1.24107 -4.5654,1.46673 -19.635,1.3073 -11.9272,-0.1262 -21.428,0.30932 -27.5263,1.26181 -12.2298,1.91013 -30.5363,2.52563 -41.383,1.39137 z m 46.1956,-34.45563 c 4.125,-0.95714 8.2167,-2.47479 9.0927,-3.37255 1.9129,-1.96059 6.3569,-28.0827 5.0071,-29.43252 -0.5113,-0.51123 -4.4566,0.0117 -9.3646,1.2413 -11.9172,2.98552 -27.5382,4.89591 -46.5341,5.69092 -18.5458,0.77618 -18.9381,0.97458 -17.8352,9.02105 1.3356,9.74405 6.6492,15.35651 17.041,17.99924 7.1493,1.81815 32.7891,1.12742 42.5931,-1.14744 z m -16.1987,-57.44049 c 16.0672,-3.33268 24.1987,-9.64265 24.1987,-18.77798 0,-10.73424 -8.7431,-17.28638 -23.0667,-17.28638 -11.9337,0 -22.0457,5.7355 -29.601,16.78966 -4.429,6.48013 -9.0677,19.21145 -7.7667,21.31652 1.0588,1.71314 24.501,0.39221 36.2357,-2.04182 z m -572.7709992,91.23813 c -6.0301,-0.46551 -8.3399998,-1.74544 -7.5684998,-4.19367 0.2789,-0.88485 2.0778998,-10.83382 3.9978998,-22.10882 1.92,-11.275 5.0799,-29.725 7.02210005,-41 1.94219995,-11.275 5.08009995,-29.5 6.97309995,-40.5 1.893,-11 4.3828002,-25.4 5.5328002,-32 7.495,-43.01373 15.2774,-88.63869 15.7327,-92.23398 0.2948,-2.3287 1.0811,-4.68632 1.7472,-5.23915 1.7344,-1.43942 27.9127,-2.26659 41.9561,-1.32572 l 11.9238,0.79886 4.6614,12 c 13.021399,33.52134 19.707299,51.53899 24.777199,66.77193 3.0992,9.31156 6.0563,16.62073 6.6481,16.43201 0.5862,-0.18697 3.3308,-3.68434 6.0992,-7.77194 8.1796,-12.07733 19.648,-28.38159 31.6867,-45.04786 29.0609,-40.23187 30.2994,-41.84027 32.7799,-42.57163 4.3673,-1.28767 49.7436,-0.96509 51.0738,0.36308 0.9031,0.9017 0.4282,5.44466 -2.0383,19.5 -9.2025,52.44129 -13.3731,76.27172 -18.5207,105.8244 -3.1135,17.875 -7.1633,40.825 -8.9995,51 -1.8362,10.175 -4.7899,27.05 -6.5638,37.5 -1.774,10.45 -3.6064,20.02246 -4.0721,21.27213 -0.8444,2.26583 -0.8987,2.27137 -19.6131,2 -22.3019,-0.3234 -20.6193,1.47392 -16.9159,-18.06937 1.376,-7.26152 4.8149,-26.25276 7.6419,-42.20276 2.827,-15.95 7.591,-42.725 10.5867,-59.5 12.872,-72.08024 12.2561,-68.01983 10.3069,-67.95118 -0.7622,0.0268 -4.0463,4.41434 -7.2979,9.75 -8.6497,14.19357 -16.2793,24.68105 -61.6196,84.70118 -5.4012,7.15 -11.3938,14.8 -13.3167,17 -4.4184,5.05495 -4.992,4.56179 -10.4667,-9 -2.220199,-5.5 -9.015399,-22.29576 -15.100199,-37.32391 -10.528,-26.00141 -20.2817,-53.37837 -21.6878,-60.87353 -0.5623,-2.99716 -2.7101,-5.32276 -3.8569,-4.17604 -0.2054,0.20547 -1.7587,8.47357 -3.4516,18.37354 -9.9679,58.29026 -25.7101,149.9539 -27.447,159.81745 -0.7571,4.29963 -1.7737,8.192 -2.259,8.64971 -1.05,0.99012 -22.5634002,1.93655 -30.3522002,1.33527 z m 266.6947992,-0.80944 c -28.3898,-7.16759 -39.9593,-28.94074 -36.748,-69.15771 1.214,-15.20315 2.8799,-24.07767 6.5997,-35.15895 5.2859,-15.74634 14.0319,-29.04729 25.1993,-38.32327 6.9364,-5.76158 11.9409,-8.45252 22.3819,-12.03485 8.6122,-2.95486 10.5651,-3.23723 24.9992,-3.61452 9.464,-0.24738 17.7706,0.0374 21,0.71987 19.7244,4.16854 31.7453,14.38808 37.1262,31.56277 3.0981,9.88802 2.9823,31.41694 -0.2499,46.48615 -9.6147,44.82594 -26.9196,68.305 -57.5335,78.06084 -9.1071,2.90217 -33.7329,3.74251 -42.7749,1.45967 z m 37.9673,-33.83718 c 13.9833,-7.08586 23.7302,-28.20179 26.3367,-57.05607 2.3367,-25.86715 -4.4753,-34.97732 -25.9842,-34.7509 -13.7888,0.14515 -23.6866,7.13703 -30.6496,21.6511 -4.3207,9.00648 -7.0606,20.2025 -8.3203,34 -1.6527,18.10137 1.0123,29.5603 8.0925,34.79505 7.0155,5.18698 21.6839,5.84091 30.5249,1.36082 z m 102.6423,34.66088 c -3.391,-0.22429 -6.6404,-0.9801 -7.2209,-1.67959 -0.8564,-1.03198 -5.9263,-23.6655 -11.1187,-49.63716 -0.4948,-2.475 -2.5168,-12.15 -4.4934,-21.5 -1.9765,-9.35 -5.1345,-24.425 -7.0177,-33.5 -1.8831,-9.075 -4.7915,-22.94882 -6.4631,-30.8307 -1.6716,-7.88189 -2.792,-14.73073 -2.4898,-15.21964 1.1978,-1.93815 18.9979,-6.21609 31.1363,-7.4831 7.4154,-0.77402 7.34,-0.86748 9.6994,12.03344 0.9052,4.95 3.8948,21.09831 6.6434,35.88514 5.137,27.63546 7.9898,47.52724 7.9898,55.71 0,9.22747 1.8019,13.05256 4.1668,8.84534 0.4453,-0.79226 3.0836,-6.84048 5.8628,-13.44048 2.7793,-6.6 13.4479,-28.2 23.7082,-48 10.2603,-19.8 20.1701,-39.00601 22.0218,-42.68001 4.7242,-9.37318 4.7445,-9.38419 14.8342,-8.0342 11.5117,1.54025 24.4354,5.12674 25.1459,6.97833 0.3168,0.82544 0.023,2.38664 -0.6534,3.46933 -1.3232,2.11868 -44.5956,79.58152 -72.9081,130.51413 -5.2732,9.48617 -10.283,17.44808 -11.1329,17.69314 -2.5296,0.72935 -21.0677,1.3154 -27.7106,0.87603 z m 331.4596,-0.44387 c -1.7879,-1.10502 5.5832,-36.88743 7.9677,-38.67804 1.3444,-1.0096 5.9079,-1.18758 20.1521,-0.78594 10.1277,0.28557 18.7812,0.88644 19.2301,1.33527 0.4488,0.44882 0.3621,2.46007 -0.1927,4.46942 -0.5548,2.00936 -2.3454,10.07283 -3.9791,17.91883 -1.6336,7.846 -3.4237,14.71886 -3.9779,15.27304 -1.1729,1.17299 -37.3604,1.60448 -39.2002,0.46742 z m -42.8874,-0.88027 c -12.8343,-1.22992 -23.489,-5.47477 -28.7329,-11.44719 -5.1138,-5.8243 -6.4135,-9.30604 -6.9106,-18.51248 -0.5162,-9.5608 0.1207,-13.7751 12.2452,-81.03294 1.3385,-7.425 4.7115,-26.55 7.4955,-42.5 2.7841,-15.94999 5.2924,-29.75591 5.574,-30.6798 0.4935,-1.61876 4.6836,-3.45127 21.4219,-9.36873 10.9911,-3.88566 15.0044,-4.84849 16.0018,-3.83896 0.5032,0.50929 0.034,5.14896 -1.1017,10.8875 -2.8464,14.38644 -4.1089,24.26666 -3.3902,26.53103 0.5924,1.86676 1.6021,1.96896 19.4505,1.96896 14.144,0 18.9421,0.31085 19.294,1.25 0.567,1.51332 -0.8018,13.30021 -2.1482,18.49887 -0.5344,2.06312 -1.4692,5.66363 -2.0774,8.00113 l -1.1059,4.25 -19.4384,0 c -23.0365,0 -21.2823,-1.10128 -23.8929,15 -1.6707,10.30405 -2.9259,17.41386 -8.0394,45.53557 -2.8909,15.89818 -3.1953,23.32008 -1.1211,27.33113 1.68,3.24888 7.1244,5.94058 14.0949,6.96854 l 4.974,0.73355 -0.2662,5.4656 c -0.2805,5.75851 -2.485,16.86594 -4.2893,21.61154 -1.7824,4.6881 -2.5512,4.83075 -18.0376,3.34668 z m -839.02463,-4.31245 c -13.67762,-5.11734 -21.48539,-16.69288 -20.69393,-30.68016 0.63502,-11.2226 1.62081,-12.47404 39.82251,-50.55362 19.24403,-19.1825 34.989151,-35.57508 34.989151,-36.42795 0,-0.85286 -15.802131,-17.29341 -35.115841,-36.53455 -37.91952,-37.77702 -38.73939,-38.81114 -39.63712,-49.99489 -1.44281,-17.97442 12.08905,-32.50172 30.25295,-32.47842 13.41743,0.0172 11.9589,-1.20123 82.580211,68.98649 6.9191,6.87661 17.0722,16.77794 22.5625,22.00294 12.3633,11.76578 15.4315,17.25178 15.5305,27.76828 0.1059,11.25762 -2.4852,15.68321 -17.8095,30.41913 -7.0424,6.77193 -28.7001,28.06259 -48.1284,47.31259 -39.688401,39.32414 -41.280531,40.54966 -53.481661,41.1668 -4.52657,0.22896 -8.61377,-0.14198 -10.87137,-0.98664 z m 22.35918,-13.22452 c 13.62612,-9.00546 12.33425,-29.01967 -2.35694,-36.51455 -8.40792,-4.2894 -20.53895,-0.98124 -26.27563,7.16542 -2.28315,3.2423 -2.98892,5.50278 -3.35624,10.74958 -0.43713,6.24406 -0.26313,6.94483 2.89111,11.64391 4.78039,7.12164 12.22796,10.88722 19.85624,10.03954 3.33864,-0.371 6.9703,-1.58289 9.24146,-3.0839 z m 84.527051,-87.00337 c 13.6168,-5.6895 16.5977,-24.2162 5.5731,-34.63865 -5.1512,-4.86978 -13.8536,-6.45772 -21.5113,-3.92517 -4.9062,1.62258 -11.4076,8.82792 -12.8718,14.26548 -4.3781,16.25932 12.9906,30.90811 28.81,24.29834 z m -83.091901,-88.06305 c 5.79052,-4.66365 8.29049,-9.75654 8.29049,-16.88921 0,-10.91999 -7.32088,-19.45015 -17.41091,-20.2869 -7.75574,-0.64316 -12.07459,0.42515 -16.13649,3.99154 -11.78086,10.34374 -9.75827,27.83036 4.0803,35.27677 2.1674,1.16626 4.99175,1.52725 10.17661,1.3007 6.27405,-0.27413 7.65745,-0.70083 11,-3.3929 z m 881.0669,133.89988 c -0.2325,-0.43401 -0.082,-5.0641 0.3352,-10.2891 0.4168,-5.225 1.698,-21.425 2.8469,-36 2.5668,-32.5616 3.3565,-38.55772 7.5734,-57.5 1.8366,-8.24999 3.8901,-17.92499 4.5634,-21.49999 2.0322,-10.79066 0.2948,-10 21.9728,-10 17.9755,0 18.9648,0.0993 18.9648,1.90288 0,1.04658 -1.6016,9.03408 -3.5592,17.75 -1.9576,8.7159 -4.2335,19.37961 -5.0575,23.69711 -1.3885,7.27453 -7.2713,25.02535 -24.2427,73.15 l -6.7005,19 -8.1369,0.2891 c -4.4752,0.159 -8.3271,-0.066 -8.5597,-0.5 z"
         id="path3117"
         inkscape:connector-curvature="0" />
      <path
         clip-path="url(#clipPath3930)"
         style="fill:#8e8e8e"
         d="m 281.91097,78.187077 c -2.0577,-1.50464 -1.0454,-4.47491 1.7766,-5.21287 2.7192,-0.71111 3.8943,-4.02734 3.2169,-9.07825 -0.4165,-3.10528 -1.0325,-4.1563 -2.5711,-4.38689 -5.043,-0.75577 -4.2476,-6.80323 0.8948,-6.80323 1.4035,0 2.3776,-0.59039 2.3776,-1.44098 0,-2.16784 -1.6134,-2.72975 -3.0092,-1.04801 -0.6796,0.81894 -2.0255,1.48899 -2.9908,1.48899 -2.6767,0 -3.441,1.59804 -6.4571,13.5 -1.5332,6.05 -3.2376,11.5625 -3.7877,12.25 -1.7024,2.12771 -4.7358,1.43116 -5.785,-1.32835 -0.8411,-2.21217 -1.3974,-2.48673 -3.9174,-1.93325 -2.7818,0.611 -2.9697,0.4433 -3.5526,-3.17165 -1.2925,-8.01568 -1.5732,-8.81424 -2.5536,-7.2646 -0.5038,0.79632 -0.9229,2.65321 -0.9313,4.12642 -0.018,3.16439 -2.3625,5.82143 -5.1364,5.82143 -1.088,0 -3.3477,0.70818 -5.0215,1.57374 -1.6738,0.86555 -3.339,1.2956 -3.7003,0.95567 -0.3614,-0.33994 -2.0071,-5.62726 -3.6571,-11.7496 -2.6783,-9.93776 -3.3217,-11.30907 -6,-12.78704 -2.0501,-1.13132 -3,-2.42133 -3,-4.07414 0,-2.37682 0.1537,-2.41863 8.891,-2.41863 7.2912,0 9.0845,0.30681 9.9665,1.70506 0.8462,1.34147 0.5821,2.23028 -1.2384,4.16816 -1.8603,1.98018 -2.1822,3.11635 -1.6419,5.79494 1.856,9.20085 2.986,9.09544 4.4826,-0.41816 1.7302,-10.99898 2.2029,-11.75 7.3963,-11.75 2.4194,0 4.865,0.5625 5.4346,1.25 0.5695,0.6875 1.5315,4.81936 2.1376,9.1819 0.6062,4.36255 1.3448,8.17452 1.6413,8.47104 0.8842,0.88425 2.176,-1.91095 2.8601,-6.18865 0.5306,-3.31824 0.2527,-4.42339 -1.6108,-6.40704 -1.7653,-1.87912 -2.0203,-2.7656 -1.1801,-4.10219 0.841,-1.33765 2.8479,-1.76798 9.3135,-1.99707 5.3195,-0.18848 8.7513,0.13107 9.6793,0.90128 1.1482,0.95285 1.8417,0.75983 3.4421,-0.958 2.4532,-2.63319 5.0749,-2.74948 7.2713,-0.32253 1.9442,2.14829 2.1193,4.30699 0.4821,5.94413 -0.8972,0.89717 -0.8972,1.77799 0,3.74706 0.6451,1.4158 1.1729,5.90144 1.1729,9.96811 0,4.51926 0.4498,7.67192 1.1569,8.10895 1.9844,1.22641 10.0601,0.66758 10.9642,-0.7587 0.9706,-1.53126 1.1872,-16.87132 0.2719,-19.2565 -0.3338,-0.86999 -1.443,-1.58179 -2.4648,-1.58179 -2.3065,0 -4.1061,-3.09418 -2.9178,-5.01681 1.0976,-1.77607 13.0277,-1.52247 14.1867,0.30158 0.4248,0.66837 0.7792,6.73887 0.7876,13.48998 0.015,12.27276 0.016,12.27491 2.5987,13.25697 1.4979,0.56948 3.9141,0.63742 5.75,0.16168 l 3.1666,-0.82054 0,-10.39134 c 0,-10.26115 -0.031,-10.39869 -2.5,-10.97743 -3.2089,-0.75226 -3.9088,-4.44736 -1.1246,-5.9374 1.2544,-0.67133 3.9724,-0.78512 7.3107,-0.30606 l 5.3139,0.76258 0.5,13.4884 c 0.4115,11.10079 0.7655,13.48839 2,13.48839 1.143,0 1.5347,-1.37234 1.646,-5.76688 0.1587,-6.26673 1.7993,-9.66833 5.9859,-12.4115 3.5082,-2.2987 11.0559,-2.20984 15.0977,0.17774 3.0373,1.79417 3.2812,1.80079 5.1174,0.13905 1.4674,-1.32791 3.3045,-1.67245 7.6871,-1.44167 6.6105,0.34811 8.8815,2.30684 6.7086,5.78624 -1.441,2.30746 -1.5947,5.91286 -0.3367,7.89915 1.0039,1.58519 1.5248,0.33905 2.6673,-6.38213 0.8185,-4.81455 2.9522,-7.5 5.9592,-7.5 3.008,0 4.4572,2.00095 5.8196,8.0352 0.6313,2.79632 1.5979,5.16984 2.1479,5.27451 1.7008,0.32366 1.7443,-5.86207 0.051,-7.26733 -2.1046,-1.74667 -1.9507,-3.75815 0.3832,-5.0072 3.0023,-1.60678 12.6027,-1.29798 14.0551,0.45209 1.5834,1.90776 0.5703,4.55361 -2.0009,5.22599 -1.429,0.37369 -2.4469,2.13413 -3.5589,6.15506 -3.9565,14.30561 -3.5653,13.60169 -7.7494,13.94621 -4.9279,0.40576 -6.3074,-0.84314 -7.1519,-6.4746 -1.3193,-8.79767 -2.8415,-9.40564 -4.0116,-1.60223 -0.952,6.34886 -2.109,8.2623 -4.9961,8.2623 -4.0357,0 -7.4451,-3.90779 -9.1541,-10.49217 -0.8554,-3.29569 -1.9933,-6.81053 -2.5286,-7.81076 -1.6358,-3.05653 -3.3118,-1.37856 -2.9957,2.99926 0.8222,11.3877 -10.2849,18.97196 -20.2065,13.79751 -3.5078,-1.82947 -5.0694,-1.88108 -6.4536,-0.21327 -0.8162,0.98354 -5.5416,1.19685 -20.3724,0.91963 -23.6763,-0.44256 -20.6279,-0.44775 -31.092,0.0529 -5.8387,0.27935 -9.3286,0.0207 -10.4125,-0.77185 z m 78.1234,-7.05267 c 3.2273,-3.22734 0.689,-12.42857 -3.4286,-12.42857 -2.1369,0 -5,4.10644 -5,7.17126 0,5.66492 4.9398,8.7461 8.4286,5.25731 z m 379.2706,-81.43395 c -4.5292,-0.82973 -6.1975,-2.25376 -5.3198,-4.54086 0.4712,-1.22804 1.2476,-1.48272 2.8828,-0.94565 1.2308,0.40427 4.086,0.94552 6.345,1.20279 3.5656,0.40609 4.3896,0.1086 6.25,-2.25643 1.1785,-1.4983 2.1428,-3.7885 2.1428,-5.08933 0,-2.00055 -0.501,-2.366 -3.25,-2.37072 -10.3263,-0.0177 -14.3702,-4.21767 -13.4829,-14.00307 0.9229,-10.17821 5.8692,-16.87387 14.1031,-19.09103 4.2795,-1.15236 12.3785,-0.55164 13.966,1.03588 1.21,1.20997 -4.865,34.45386 -7.1268,38.99927 -3.015,6.05931 -8.6999,8.48998 -16.5102,7.05915 z m 13.6672,-21.24462 c 1.5995,-2.54795 4.9023,-19.50616 4.0634,-20.86353 -0.3013,-0.48756 -2.2606,-0.88647 -4.354,-0.88647 -4.5909,0 -8.7457,2.96583 -10.697,7.63578 -1.6969,4.06141 -1.8087,13.53437 -0.1788,15.16422 0.66,0.66 3.1246,1.2 5.4769,1.2 3.3502,0 4.5831,-0.48755 5.6895,-2.25 z m -387.9663,5.85035 c -0.7997,-2.08403 3.4753,-24.75289 5.1512,-27.31517 0.7968,-1.21814 2.2872,-2.66358 3.3121,-3.21208 2.7263,-1.45906 31.1364,-1.68862 33.7716,-0.27289 3.2874,1.76623 3.5251,5.01446 1.3059,17.85195 -2.1169,12.24552 -3.6811,15.63828 -6.2334,13.52007 -1.185,-0.98343 -1.0847,-2.96335 0.6716,-13.26534 2.031,-11.913 2.0335,-12.13205 0.1515,-13.50813 -2.1371,-1.56274 -7.2969,-1.83284 -9.4128,-0.49273 -0.8226,0.52096 -2.2752,5.9132 -3.5878,13.31779 -2.3711,13.37536 -2.8565,14.77618 -5.1204,14.77618 -2.5349,0 -2.6035,-2.42857 -0.4096,-14.5 1.1714,-6.44559 1.8676,-12.40255 1.5472,-13.23768 -0.7708,-2.00862 -9.4333,-1.13862 -11.0795,1.11275 -0.6347,0.86795 -1.9601,6.20113 -2.9453,11.85151 -0.9853,5.65038 -2.1697,11.28592 -2.6321,12.52342 -0.9352,2.50265 -3.6582,3.01834 -4.4902,0.85035 z m 55.3657,-1.51996 c -3.1571,-2.82241 -3.2625,-3.16742 -3.166,-10.36365 0.1739,-12.95935 6.2205,-20.17684 16.7702,-20.01769 4.335,0.0654 5.4307,0.5135 7.8349,3.20427 2.3081,2.58318 2.7941,4.04023 2.7895,8.36246 0,2.87882 -0.4704,6.90775 -1.0384,8.95317 -3.066,11.03937 -15.8105,16.4589 -23.1902,9.86144 z m 14.6456,-5.15746 c 2.6143,-3.10695 3.0417,-4.3164 3.9718,-11.23998 0.9578,-7.12944 -3.1708,-11.21529 -9.1715,-9.0766 -4.4287,1.57842 -6.6093,5.73761 -7.0443,13.43644 -0.4687,8.29467 0.5108,9.95721 5.8661,9.95721 3.0031,0 4.3256,-0.63803 6.3779,-3.07707 z m 23.9219,7.30425 c -1.0983,-0.6987 -6.3333,-24.88882 -6.3333,-29.2651 0,-2.27159 2.6268,-3.73522 4.0856,-2.27643 0.5232,0.52317 1.6255,4.97042 2.4496,9.88278 2.3232,13.84772 2.3094,13.80544 4.0434,12.36631 0.8229,-0.68297 3.9929,-6.12268 7.0444,-12.08825 4.1362,-8.08625 6.0353,-10.84649 7.4625,-10.84649 1.1599,0 1.9111,0.68975 1.9059,1.75 -0.012,2.46682 -13.6515,27.3831 -16.1487,29.5 -2.2914,1.94257 -2.8139,2.05579 -4.5094,0.97718 z m 29.087,-1.11265 c -4.1864,-2.55284 -5.8248,-6.90631 -5.1306,-13.63242 1.2789,-12.3913 9.869,-19.82311 20.2103,-17.48514 4.8986,1.10749 7.5,4.11172 7.5,8.66156 0,6.05258 -5.757,9.33709 -18.5,10.55479 -3.6805,0.35171 -4.6092,3.8968 -1.8304,6.98727 1.6124,1.79326 2.6417,1.96835 8.6435,1.47042 6.0055,-0.49823 6.775,-0.36704 6.4912,1.10676 -0.8085,4.198 -11.8892,5.68748 -17.384,2.33676 z m 15.5678,-19.73296 c 1.9528,-1.88621 2.2611,-2.76293 1.4331,-4.07554 -1.9128,-3.03238 -4.0347,-3.75381 -8.0929,-2.75152 -2.9608,0.73123 -4.2815,1.80083 -5.8283,4.71988 -1.7471,3.297 -1.8103,3.89755 -0.5,4.74816 2.4655,1.60057 10.2316,0.0214 12.9881,-2.64098 z m 13.2141,20.76458 c -1.0459,-0.66344 -0.8158,-3.66711 1.1853,-15.47551 1.3657,-8.05876 2.7638,-15.10642 3.1068,-15.66147 1.0658,-1.72449 4.5055,-1.15919 4.5078,0.74083 0,3.92512 -4.3786,28.84027 -5.2778,30 -1.1277,1.45442 -1.7444,1.52378 -3.5221,0.39615 z m 20.0332,-0.1606 c -4.3363,-1.78441 -4.5665,-5.04288 -1.548,-21.90977 1.9406,-10.84358 3.327,-16.09018 4.5838,-17.34699 2.3511,-2.3511 4.0744,-1.20689 3.3837,2.24666 -0.6735,3.36736 0.8498,5.02455 4.6184,5.02455 4.531,0 3.208,3.30657 -1.6382,4.0943 -2.1139,0.3436 -4.2124,1.22176 -4.6634,1.95148 -1.0975,1.77582 -3.3159,16.94238 -2.8391,19.41037 0.2108,1.09126 1.4809,2.21655 2.8726,2.54509 3.4391,0.81185 3.435,4.42026 0,4.70747 -1.375,0.11479 -3.519,-0.21063 -4.7645,-0.72316 z m 23.8045,-0.43751 c -2.6565,-3.20083 1.2452,-8.11777 4.7101,-5.93574 2.4658,1.55288 2.7919,4.51827 0.6676,6.0716 -2.3301,1.70383 -3.8835,1.66459 -5.3777,-0.13586 z m 14.2894,-0.13221 c -0.8925,-2.32578 2.4459,-21.1192 4.6276,-26.05143 1.585,-3.58302 2.5235,-4.41667 6.0374,-5.36286 5.6038,-1.50894 8.5057,-1.0035 8.5057,1.4815 0,1.52275 -0.8862,2.12708 -3.8179,2.60362 -2.0999,0.34132 -4.4489,1.25154 -5.2201,2.02272 -0.7711,0.77118 -2.3052,6.76656 -3.4089,13.32306 -1.8079,10.7395 -2.8963,13.50447 -5.3345,13.55225 -0.4298,0.008 -1.0549,-0.69756 -1.3893,-1.56886 z m 26.7808,0.24631 c -3.3381,-1.93066 -5.0332,-5.42777 -5.0747,-10.46932 -0.093,-11.3274 4.7207,-19.21514 12.9286,-21.1842 4.3688,-1.04806 5.4548,-0.96774 8.7539,0.64745 5.0649,2.47971 6.4867,5.50924 5.9238,12.62272 -0.5334,6.74078 -3.9884,14.28029 -7.8172,17.05887 -3.3845,2.45612 -11.4956,3.18621 -14.7144,1.32448 z m 12.649,-5.91214 c 2.9675,-3.16791 4.2409,-7.06715 4.2409,-12.98636 0,-5.89873 -1.9394,-8.76364 -5.9325,-8.76364 -3.3617,0 -6.6713,2.33321 -8.6,6.06282 -2.0236,3.91329 -2.3961,14.1038 -0.5951,16.27937 2.0722,2.50308 8.3047,2.16406 10.8867,-0.59219 z m 16.7792,5.9017 c -2.8552,-2.08778 -0.9191,-3.6517 4.5207,-3.6517 3.6077,0 5.4807,-0.5397 6.941,-2 1.1,-1.1 2,-2.34987 2,-2.77749 0,-1.77905 -3.2452,-5.22251 -4.9219,-5.22251 -0.9946,0 -2.9941,-0.93266 -4.4433,-2.07258 -3.3483,-2.63384 -3.6217,-8.40312 -0.5812,-12.26846 2.4584,-3.12529 8.3243,-4.91981 12.4634,-3.81283 3.9111,1.04599 3.9002,3.57004 -0.017,3.92808 -5.5145,0.50403 -7.4344,1.23478 -8.5063,3.2376 -1.5182,2.83675 0.2496,5.58335 4.4956,6.98463 6.3775,2.1048 8.2307,7.67045 4.559,13.69219 -2.8522,4.67766 -12.3987,6.96924 -16.5099,3.96307 z m 34.0331,-0.22313 c -1.9097,-1.90971 -1.9441,-2.53659 -0.2654,-4.83241 1.9162,-2.62061 6.1005,-1.75814 6.539,1.34781 0.212,1.5023 -0.3433,2.94719 -1.4412,3.75 -2.2958,1.67874 -2.9227,1.64431 -4.8324,-0.2654 z m 18.7311,0.37439 c -3.7261,-1.80029 -5.642,-7.28106 -4.9291,-14.10124 1.2079,-11.55712 7.3204,-18.08634 16.9318,-18.08634 4.3225,0 5.3314,0.41346 7.8284,3.20809 2.3995,2.68549 2.8664,4.08098 2.8664,8.56658 0,6.30453 -2.1766,13.08514 -5.2838,16.46036 -4.2534,4.62029 -12.2669,6.43918 -17.4137,3.95255 z m 12.3982,-6.05296 c 3.2893,-3.61129 4.3039,-6.30342 4.5594,-12.0975 0.1843,-4.18114 -0.2013,-5.929 -1.6651,-7.54693 -3.7433,-4.13749 -10.5647,-1.81577 -13.2006,4.493 -1.7093,4.09074 -1.8349,14.56097 -0.1944,16.20143 2.0688,2.06882 8.2203,1.45371 10.5007,-1.05 z m 16.6571,6.20781 c -0.7229,-0.72291 -0.4908,-4.27843 0.7575,-11.60618 2.1485,-12.61167 3.3628,-16.56937 5.7454,-18.72559 2.1534,-1.94879 10.073,-3.09347 12.075,-1.7453 2.1427,1.44296 -0.4475,4.11926 -3.9867,4.11926 -2.9837,0 -5.4964,1.89125 -6.3186,4.75592 -0.2753,0.95924 -1.2441,6.24408 -2.153,11.74408 -1.9204,11.62188 -3.3252,14.25216 -6.1196,11.45781 z m -190.1774,-41.19759 c 0.3362,-2.35631 3.382,-3.59783 4.9586,-2.02122 1.5709,1.57091 -0.2066,4.261 -2.8156,4.261 -1.9788,0 -2.3998,-0.43992 -2.143,-2.23978 z m -373.9304,-10.79138 c -2.3673,-0.95153 -2.9988,-3.38801 -1.171,-4.51767 0.5934,-0.36677 3.0871,-0.10461 5.5415,0.58258 5.6302,1.57635 8.9261,0.27399 10.8429,-4.28444 1.835,-4.36388 0.5024,-5.74931 -5.5301,-5.74931 -3.6574,0 -5.4994,-0.58336 -7.6276,-2.41568 -2.5762,-2.21809 -2.8019,-2.9747 -2.7597,-9.249997 0.055,-8.12523 2.5801,-13.80326 7.9662,-17.91144 2.798,-2.13415 4.927,-2.78688 10.2592,-3.14536 10.6397,-0.71532 10.8403,-0.36819 8.2389,14.25946 -4.3218,24.301347 -4.9807,26.633437 -8.5267,30.179357 -2.9854,2.98545 -3.8149,3.2779 -9.1336,3.22027 -3.2175,-0.0349 -6.8625,-0.47036 -8.1,-0.96777 z m 16.6617,-18.89309 c 1.4819,-0.9381 5.4856,-20.623837 4.5142,-22.195677 -1.1254,-1.82093 -8.9757,-0.94819 -11.3476,1.26155 -4.9146,4.5787 -6.899,16.18907 -3.4233,20.029637 1.7667,1.95221 7.7658,2.48124 10.2567,0.90449 z m -127.699099,4.41764 c -4.4943,-1.95268 -6.5891,-7.07862 -5.6756,-13.888187 1.2829,-9.56276 4.3676,-14.70283 10.3148,-17.18776 4.084,-1.70641 6.8023,-1.78258 11.0293,-0.30903 10.8419,3.77949 6.4396,28.486507 -5.6752,31.851177 -4.7675,1.32409 -6.0058,1.26632 -9.9933,-0.4662 z m 11.4643,-5.74339 c 2.8913,-3.211717 3.2289,-3.980467 4.3546,-9.916427 0.7234,-3.81428 0.6844,-6.10523 -0.1378,-8.09006 -2.1148,-5.10562 -9.275,-4.81488 -13.2607,0.53846 -2.8515,3.82999 -3.611,15.597157 -1.1646,18.043607 2.4403,2.44032 7.7637,2.14017 10.2085,-0.57558 z m 24.8319,5.88013 c -1.2247,-0.89554 -2.4876,-4.9522 -4.1127,-13.211247 -3.0076,-15.28429 -3.0697,-18.41889 -0.3647,-18.41889 2.498,0 2.5681,0.18288 4.7625,12.42887 0.9786,5.46088 2.2827,10.09667 2.8979,10.30176 0.6153,0.20508 3.8915,-4.8254 7.2806,-11.17887 4.6012,-8.62603 6.6514,-11.55176 8.0947,-11.55176 1.0631,0 1.9329,0.68097 1.9329,1.51326 0,2.45349 -15.0002,29.416487 -16.9438,30.456677 -1.2155,0.65048 -2.3405,0.54271 -3.5474,-0.3398 z m 151.491199,0.0912 c -2.8727,-1.43537 -5.9962,-7.03899 -5.9985,-10.761247 0,-4.651 3.0679,-14.40449 5.2978,-16.82699 4.5274,-4.9186 11.3663,-6.33468 17.2073,-3.56295 4.4681,2.12025 5.9287,5.99119 5.133,13.60387 -0.871,8.33284 -4.0135,13.758107 -9.6015,16.575967 -5.0209,2.53189 -8.3736,2.80241 -12.0381,0.97135 z m 10.8831,-5.35204 c 3.2359,-2.26652 5.1169,-7.326827 5.1169,-13.765757 0,-6.21419 -1.6244,-8.60355 -5.8489,-8.60355 -6.3051,0 -10.1511,6.03107 -10.1511,15.91819 0,4.642587 0.3919,6.210707 1.75,7.001707 2.6123,1.52156 6.5102,1.28658 9.1331,-0.55059 z m 20.3451,5.4005 c -1.2494,-0.60216 -2.565,-2.25921 -2.9236,-3.68232 -0.5475,-2.17312 5.0076,-39.945837 6.447,-43.837497 0.2543,-0.6875 1.5981,-1.25 2.9862,-1.25 2.3647,0 2.4831,0.23644 1.8773,3.75 -0.3556,2.0625 -0.9256,5.6625 -1.2667,8 l -0.6203,4.25 4.4867,0 c 9.2791,0 13.7852,3.70534 13.7852,11.33552 0,5.3827 -3.0964,13.624297 -6.4577,17.188347 -4.4952,4.7663 -13.0966,6.76044 -18.3141,4.24595 z m 12.6575,-5.40231 c 5.4764,-3.835837 8.4564,-19.043687 4.18,-21.332317 -2.6822,-1.4355 -9.6094,-1.29805 -10.8264,0.21482 -1.6486,2.0495 -4.1503,19.013267 -3.0969,20.999997 1.1925,2.24887 6.6071,2.31417 9.7433,0.1175 z m 23.5354,5.21358 c -4.153,-1.80834 -5.7576,-6.04635 -5.2329,-13.820977 0.8156,-12.08623 6.3095,-18.117 16.5895,-18.21087 4.6988,-0.0429 5.7024,0.31142 7.8071,2.75653 2.0403,2.37027 2.4118,3.84481 2.3932,9.5 -0.05,15.187997 -10.3635,24.649267 -21.5569,19.775317 z m 11.2961,-5.35332 c 4.5559,-3.550167 6.8026,-15.612897 3.7261,-20.005247 -1.7467,-2.49379 -6.8572,-2.99886 -9.5185,-0.94071 -4.9666,3.84118 -7.5918,15.52513 -4.536,20.188857 1.9946,3.04417 6.9293,3.40589 10.3284,0.7571 z m 22.7828,6.053 c -6.1622,-1.50121 -6.5709,-4.46633 -3.3371,-24.212047 1.5717,-9.59685 2.7293,-13.96092 4.0548,-15.28648 2.4434,-2.44333 3.7823,-1.46035 3.7823,2.77678 0,2.81082 0.3783,3.44098 2.0657,3.44098 1.1362,0 2.9194,0.45686 3.9628,1.01525 2.8096,1.50369 1.3317,3.98196 -2.3855,4.00007 -1.7287,0.008 -3.7236,0.38363 -4.4331,0.83379 -0.7095,0.45016 -2.0354,5.12824 -2.9463,10.39573 -1.7706,10.238957 -1.2277,12.755167 2.7518,12.755167 2.5671,0 3.2727,2.77546 1.0131,3.98475 -1.0434,0.55839 -2.0391,0.96305 -2.2128,0.89925 -0.1736,-0.0638 -1.2157,-0.33526 -2.3157,-0.60324 z m 17,0.0364 c -3.0896,-0.78977 -3.9616,-2.05598 -2.5704,-3.73229 0.8273,-0.99684 2.2095,-1.30701 4.1208,-0.92474 4.0507,0.81013 7.6977,-0.32086 9.0236,-2.79839 1.6173,-3.021857 -0.2341,-6.518317 -3.8748,-7.317947 -6.7501,-1.48256 -8.9795,-7.1118 -5.2433,-13.23928 2.3649,-3.87855 8.651,-6.18049 12.8474,-4.70467 4.3719,1.53749 3.3939,3.8506 -1.7837,4.21895 -5.5981,0.39828 -7.204,1.69366 -6.8207,5.50192 0.2511,2.49415 0.9656,3.21755 4.3011,4.35463 2.2,0.74999 4.5625,2.11586 5.25,3.03529 2.8029,3.74848 0.7095,11.483317 -3.7293,13.778667 -3.1454,1.62656 -8.7991,2.52357 -11.5207,1.82786 z m 118.7841,-0.0184 c -1.2187,-0.23589 -3.4091,-1.84704 -4.8676,-3.58032 -2.447,-2.90813 -2.6163,-3.69442 -2.1922,-10.184917 0.6198,-9.48674 3.4924,-15.04794 9.0844,-17.5867 5.0724,-2.30293 7.6594,-2.40481 12.2594,-0.48279 5.3686,2.24313 7.0156,7.06214 5.4355,15.90368 -1.4543,8.137777 -5.8632,13.943457 -11.8521,15.606907 -3.7509,1.04186 -4.0876,1.05574 -7.8674,0.32414 z m 10.1791,-6.67101 c 4.2786,-4.278667 5.9504,-15.164487 2.9801,-19.405217 -2.243,-3.20225 -7.786,-3.03484 -10.9038,0.3293 -4.2885,4.6274 -5.6732,16.17232 -2.4111,20.102877 1.8443,2.22234 7.6637,1.64407 10.3348,-1.02696 z m 38.0368,6.65301 c -4.837,-1.17837 -5.7848,-3.25699 -5.1438,-11.280757 0.7891,-9.87809 4.1244,-26.66932 5.6666,-28.52754 2.307,-2.77976 3.9772,-1.71836 3.9772,2.52753 0,3.27648 0.3469,4 1.9182,4 3.2411,0 5.0818,1.12542 5.0818,3.107 0,1.4659 -0.7333,1.89646 -3.25,1.90832 -1.7875,0.008 -3.8534,0.39774 -4.5908,0.86514 -0.7527,0.47704 -2.0284,5.05729 -2.9083,10.44148 -1.6844,10.306577 -1.1472,12.678067 2.8715,12.678067 2.324,0 2.5613,3.52367 0.2958,4.39301 -0.87,0.33385 -1.6575,0.55479 -1.75,0.49099 -0.092,-0.0638 -1.0682,-0.33526 -2.1682,-0.60324 z m 55.8255,-0.70842 c -4.8041,-2.13728 -6.8085,-5.92976 -6.6553,-12.592247 0.2888,-12.56362 10.009,-22.01399 20.0732,-19.51603 4.7298,1.17396 7.2566,4.3573 7.2566,9.14216 0,5.6319 -3.4434,8.1902 -12.7629,9.4824 -3.7054,0.51378 -7.2996,1.1399 -7.9871,1.39138 -1.9475,0.71237 -1.472,4.298027 0.8822,6.652247 1.8819,1.88188 2.88,2.06244 8.5,1.53763 4.9514,-0.46236 6.3678,-0.29658 6.3678,0.7453 0,2.17085 -2.1771,3.32185 -7.5,3.96517 -3.3324,0.40275 -6.0588,0.13326 -8.1745,-0.80801 z m 11.5313,-18.672267 c 6.2762,-2.18791 4.8335,-8.90007 -1.9131,-8.90007 -4.3275,0 -11.0387,6.41927 -9.4309,9.02067 0.8119,1.31382 7.4311,1.24346 11.344,-0.1206 z m 56.4312,18.896417 c -3.6819,-1.778 -4.123,-5.28226 -2.1132,-16.787757 2.6183,-14.98942 2.6245,-15.00874 4.7852,-15.00874 1.0571,0 2.1661,0.39511 2.4646,0.87802 0.2984,0.48291 -0.3924,6.12323 -1.5352,12.53405 -2.3693,13.291087 -2.0099,14.587937 4.0419,14.587937 6.1404,0 6.9273,-1.26055 9.3755,-15.017877 2.1414,-12.03308 2.3107,-12.48212 4.7072,-12.48212 2.942,0 2.9435,0.0418 0.4934,14 -2.1226,12.092647 -3.5957,15.221097 -8.0417,17.078777 -3.948,1.64959 -10.9886,1.7577 -14.1777,0.21771 z m 54.9474,0.16697 c -4.0766,-1.63777 -4.4809,-5.05798 -2.1675,-18.337207 2.1261,-12.20452 3.8279,-15.78758 6.4605,-13.60272 0.9207,0.76414 0.8723,2.86819 -0.2124,9.23307 -2.5812,15.146317 -2.6215,15.670407 -1.3239,17.233827 1.6545,1.99358 8.4202,1.95444 10.435,-0.0604 1.7888,-1.78883 1.9648,-2.44832 4.1188,-15.430067 1.6374,-9.86873 3.4276,-13.42654 5.6416,-11.21247 0.9358,0.93577 0.8055,3.69353 -0.5886,12.45715 -2.174,13.666367 -3.5308,17.151647 -7.4705,19.188897 -3.2902,1.70144 -11.2701,1.98535 -14.893,0.52988 z m 58.0901,-0.42259 c -4.6368,-2.01691 -6.753,-5.84234 -6.61,-11.948947 0.3241,-13.84395 10.6834,-23.25564 21.6231,-19.64521 4.4718,1.47585 7.3346,6.53369 5.9868,10.5772 -1.4305,4.29124 -4.9811,6.26761 -13.8153,7.68981 -9.1161,1.46757 -10.3794,3.00789 -6.0324,7.354897 2.3574,2.35738 3.2273,2.58162 8.8188,2.27337 4.9996,-0.27562 6.2035,-0.0509 6.2035,1.15801 0,1.71246 -5.5483,3.87874 -10,3.90442 -1.65,0.01 -4.4285,-0.60409 -6.1745,-1.36355 z m 12.7242,-19.066547 c 5.4917,-2.83991 3.1242,-8.47432 -3.5609,-8.47432 -3.189,0 -8.4888,4.94661 -8.4888,7.92308 0,1.79823 0.6105,2.07692 4.5497,2.07692 2.5023,0 5.8773,-0.68656 7.5,-1.52568 z m -780.048199,17.275697 c 0,-4.46078 4.1738,-24.299467 5.5608,-26.450387 2.0103,-3.11774 7.3400998,-4.28763 19.5626998,-4.29404 13.3455002,-0.007 16.5984002,0.64272 18.6133002,3.71782 1.4754,2.25168 1.4595,3.37428 -0.1999,14.11145 -2.0304,13.138747 -2.7752,15.165157 -5.5736,15.165157 -2.384,0 -2.4282,-1.07676 -0.4646,-11.337967 0.8249,-4.31088 1.4998,-9.58981 1.4998,-11.73095 0,-4.34794 -1.7311,-5.3677 -8.0715,-4.75476 l -3.3481002,0.32368 -1.6398,8.5 c -0.9018,4.675 -2.0449,10.749997 -2.5402,13.499997 -0.7367,4.09116 -1.3094,5.05808 -3.15039995,5.31955 -2.83660005,0.40287 -2.92030005,-1.63654 -0.6129,-14.949477 0.91799995,-5.29645 1.38929995,-10.35895 1.04729995,-11.25 -0.84499995,-2.20213 -6.8488,-2.12094 -9.6083,0.12993 -1.6795,1.36997 -2.5817998,4.22935 -4.1550998,13.16718 -1.1053,6.279437 -2.2412,11.791937 -2.5243,12.249997 -0.2831,0.45805 -1.3882,0.83282 -2.4557,0.83282 -1.3467,0 -1.9405,-0.68894 -1.9395,-2.25 z m 117.0903,-1.93045 c 0.051,-2.37575 1.063,-9.490177 2.25,-15.809837 1.768099,-9.41359 2.493699,-11.55418 4.014399,-11.84379 1.0209,-0.19442 2.218,0.0262 2.6602,0.4903 0.4421,0.46408 -0.3956,7.59378 -1.8618,15.84378 -2.4587,13.835297 -2.8399,15.024807 -4.910099,15.319547 -2.0402,0.29046 -2.2362,-0.0736 -2.1527,-4 z m 15.908199,1.28546 c 0,-5.21185 3.8641,-23.248607 5.523,-25.780517 1.9671,-3.00216 5.3236,-4.3245 10.977,-4.3245 11.0277,0 12.1698,2.44219 9.2028,19.67932 -1.849,10.741887 -2.5048,12.855287 -4.083,13.157467 -1.0341,0.198 -2.197,-0.15264 -2.5842,-0.7792 -0.3873,-0.62657 0.1648,-6.30985 1.2268,-12.629507 2.215,-13.18124 1.8422,-14.42807 -4.3134,-14.42807 -4.6033,0 -6.653,1.84526 -7.5337,6.78215 -3.427,19.211017 -3.8665,20.710917 -6.1653,21.037397 -1.9092,0.27115 -2.25,-0.14006 -2.25,-2.71454 z m 84.3961,-1.35501 c 3.7582,-24.506947 5.5449,-28.050597 14.2075,-28.177997 4.2537,-0.0626 4.8964,0.1905 4.8964,1.928 0,1.59096 -0.7705,2.06369 -3.7672,2.31139 -4.6725,0.38622 -6.0828,2.4492 -7.6488,11.18861 -3.0768,17.170297 -3.0189,16.999997 -5.7827,16.999997 -2.4437,0 -2.5281,-0.18818 -1.9052,-4.25 z m 186.6524,1 c 0.027,-1.7875 1.0539,-8.871677 2.2827,-15.742617 1.8345,-10.25708 2.5606,-12.55545 4.0578,-12.84379 1.0029,-0.19314 2.2034,0.0288 2.6678,0.49322 0.7196,0.71961 -3.1468,26.447707 -4.5224,30.093187 -0.2594,0.6875 -1.3858,1.25 -2.503,1.25 -1.6351,0 -2.022,-0.63402 -1.9829,-3.25 z m 15.9515,1.73923 c 0,-2.90585 3.0841,-21.019047 4.1404,-24.316617 1.4712,-4.59309 6.0172,-7.1642 12.6753,-7.16888 10.7787,-0.008 11.9906,2.54809 9.1377,19.26911 -1.1351,6.653297 -2.2906,12.463717 -2.5677,12.912037 -0.2771,0.44831 -1.4357,0.81512 -2.5748,0.81512 -2.3124,0 -2.3142,0.10978 0.2903,-17.311657 1.4963,-10.00936 1.1865,-10.64584 -5.1962,-10.67303 -5.3821,-0.0229 -6.7116,2.20073 -8.883,14.85617 -1.0512,6.127257 -2.1878,11.587777 -2.5257,12.134487 -0.9672,1.565 -4.4963,1.15942 -4.4963,-0.51674 z m 37.057,-0.43226 c -2.6294,-2.6294 -2.5887,-4.55841 0.4668,-22.082237 1.772,-10.16279 3.0221,-14.84823 4.1963,-15.72849 2.0655,-1.54841 3.0285,-0.64095 3.4529,3.25375 0.2538,2.32873 0.8864,3.07738 2.827,3.34582 5.7392,0.79389 6.1752,5.15419 0.5154,5.15419 -1.7988,0 -3.8078,0.64741 -4.4645,1.4387 -1.2813,1.5438 -3.8395,16.96026 -3.2747,19.733837 0.1873,0.91989 1.7049,2.14813 3.3724,2.72942 3.965,1.38223 3.1906,3.51367 -1.4189,3.90501 -2.6036,0.22103 -4.1916,-0.26887 -5.6727,-1.75 z m 87.5309,1.08534 c -0.2915,-0.47173 0.3497,-5.98423 1.4249,-12.249997 4.2179,-24.58002 5.9981,-34.10094 6.54,-34.97784 0.3109,-0.50296 1.4966,-0.91448 2.635,-0.91448 1.9291,0 2.0169,0.35702 1.2918,5.25 -1.583,10.68079 -1.8548,10.17483 5.8186,10.83392 8.3424,0.71656 9.9918,2.10277 9.8676,8.29297 -0.094,4.68575 -2.9133,22.405577 -3.7906,23.825087 -0.2713,0.43891 -1.3667,0.79803 -2.4342,0.79803 -2.4367,0 -2.4586,-1.3603 -0.2468,-15.314797 1.9757,-12.46535 1.8921,-12.64455 -5.909,-12.66989 -5.8612,-0.019 -6.0897,0.36974 -8.218,13.98469 -0.9028,5.774997 -1.88,11.287497 -2.1717,12.249997 -0.5459,1.80155 -3.8649,2.41757 -4.8076,0.89231 z m 83.9937,-0.0103 c -0.2951,-0.4774 0.8326,-8.689897 2.506,-18.249997 1.6733,-9.56009 3.2966,-18.84186 3.6073,-20.62613 0.3107,-1.78427 1.5785,-4.33785 2.8174,-5.67462 2.8126,-3.03491 10.0603,-5.40862 11.6526,-3.81637 1.6039,1.6039 0.2375,4.23512 -2.1993,4.23512 -3.4813,0 -5.7423,1.79335 -6.9767,5.53356 -1.5554,4.71293 -0.863,6.07988 3.4936,6.89718 2.6816,0.50308 3.5568,1.12676 3.3183,2.3648 -0.1781,0.92482 -1.2186,1.81669 -2.3123,1.98192 -7.1469,1.07972 -7.1984,1.16996 -9.5592,16.72255 -0.6679,4.399997 -1.616,8.787497 -2.107,9.749997 -0.9424,1.84746 -3.3363,2.34535 -4.2407,0.88199 z m 58.5044,-0.78428 c -2.2322,-1.56353 -2.326,-2.06047 -1.7448,-9.249997 0.8797,-10.88344 4.246,-27.11351 5.9842,-28.85166 2.1088,-2.10885 3.6746,-0.69719 3.6746,3.31296 0,2.89722 0.3555,3.4434 2.25,3.45629 1.2375,0.008 2.8781,0.41301 3.6457,0.89908 2.207,1.39749 0.4945,4.08382 -2.6143,4.10093 -4.3963,0.0242 -5.1408,1.07391 -6.7589,9.52989 -2.1754,11.368747 -2.0621,12.424877 1.4775,13.760897 1.7863,0.67425 3,1.85282 3,2.91314 0,2.35088 -5.6253,2.43196 -8.914,0.12847 z m 51.6227,0.95948 c -0.9001,-1.51347 3.8949,-25.053227 5.6484,-27.729457 0.9611,-1.46685 2.8783,-3.09691 4.2603,-3.62237 3.7064,-1.40916 9.0845,-1.17469 9.6975,0.42277 0.7464,1.94508 -1.2554,3.62187 -4.3238,3.62187 -4.8954,0 -5.8644,1.76035 -8.2567,15 -2.0186,11.172097 -2.4863,12.532627 -4.4021,12.807187 -1.179,0.16895 -2.3596,-0.056 -2.6236,-0.5 z m -615.042,-38.973887 c -1.2284,-1.22836 -0.6836,-3.2539 1.1372,-4.22837 2.5275,-1.35271 4.5648,0.15799 3.7357,2.77019 -0.6438,2.02842 -3.46,2.87114 -4.8729,1.45818 z m 286.7133,-0.78544 c -0.8261,-2.15288 0.4238,-3.54789 3.179,-3.54789 2.6088,0 3.2075,1.83346 1.241,3.8 -1.6313,1.63132 -3.7435,1.51085 -4.42,-0.25211 z m 148.4244,-21.588 c -14.456,-1.51071 -28.0076,-7.1562 -35.3878,-14.74225 -7.9038,-8.12432 -12.0035,-18.61034 -13.3717,-34.20167 -2.9937,-34.11536 8.8244,-70.8921 28.8728,-89.84873 15.6027,-14.75307 32.8204,-21.16724 56.8196,-21.16724 14.8065,0 20.4496,1.18939 31.7782,6.69789 6.4749,3.14844 8.6336,4.84899 12.5447,9.88249 8.4325,10.85224 13.563,30.50808 10.9974,42.13277 -1.6361,7.41309 -5.5405,15.73492 -8.4598,18.03123 -1.2541,0.98649 -2.8179,2.79831 -3.4751,4.02627 -0.6572,1.22796 -2.6411,2.89056 -4.4088,3.69466 -1.7676,0.80411 -5.4639,2.80951 -8.2139,4.45643 -2.75,1.64693 -5.9405,3.01328 -7.0901,3.03634 -1.1495,0.0231 -5.6333,0.94814 -9.964,2.05574 -11.1041,2.83997 -27.8756,4.87375 -46.5342,5.64294 -18.2237,0.75126 -18.6462,0.96791 -17.5458,8.99629 2.0493,14.95085 12.5889,20.12346 38.8856,19.08411 14.7557,-0.5832 27.1541,-2.99874 30.3681,-5.9165 4.0454,-3.67264 11.4793,0.27596 13.3763,7.10508 0.5461,1.96584 0.9954,7.35588 0.9985,11.97787 l 0.01,8.40361 -4.1664,3.84639 c -3.795,3.5035 -4.6641,3.84673 -9.75,3.8502 -3.071,0.002 -9.6336,0.66866 -14.5836,1.48126 -11.808,1.93843 -30.8233,2.61102 -41.6956,1.47482 z m 29.9969,-91.89553 c 16.0672,-3.33268 24.1987,-9.64265 24.1987,-18.77798 0,-10.73424 -8.7431,-17.28638 -23.0667,-17.28638 -11.9337,0 -22.0457,5.7355 -29.601,16.78966 -4.429,6.48013 -9.0677,19.21145 -7.7667,21.31652 1.0588,1.71314 24.501,0.39221 36.2357,-2.04182 z m -572.7709992,91.23813 c -6.0301,-0.46551 -8.3399998,-1.74544 -7.5684998,-4.19367 0.2789,-0.88485 2.0778998,-10.83382 3.9978998,-22.10882 1.92,-11.275 5.0799,-29.725 7.02210005,-41 1.94219995,-11.275 5.08009995,-29.5 6.97309995,-40.5 1.893,-11 4.3828002,-25.4 5.5328002,-32 7.495,-43.01373 15.2774,-88.63869 15.7327,-92.23398 0.2948,-2.3287 1.0811,-4.68632 1.7472,-5.23915 1.7344,-1.43942 27.9127,-2.26659 41.9561,-1.32572 l 11.9238,0.79886 4.6614,12 c 13.021399,33.52134 19.707299,51.53899 24.777199,66.77193 3.0992,9.31156 6.0563,16.62073 6.6481,16.43201 0.5862,-0.18697 3.3308,-3.68434 6.0992,-7.77194 8.1796,-12.07733 19.648,-28.38159 31.6867,-45.04786 29.0609,-40.23187 30.2994,-41.84027 32.7799,-42.57163 4.3673,-1.28767 49.7436,-0.96509 51.0738,0.36308 0.9031,0.9017 0.4282,5.44466 -2.0383,19.5 -9.2025,52.44129 -13.3731,76.27172 -18.5207,105.8244 -3.1135,17.875 -7.1633,40.825 -8.9995,51 -1.8362,10.175 -4.7899,27.05 -6.5638,37.5 -1.774,10.45 -3.6064,20.02246 -4.0721,21.27213 -0.8444,2.26583 -0.8987,2.27137 -19.6131,2 -22.3019,-0.3234 -20.6193,1.47392 -16.9159,-18.06937 1.376,-7.26152 4.8149,-26.25276 7.6419,-42.20276 2.827,-15.95 7.591,-42.725 10.5867,-59.5 12.872,-72.08024 12.2561,-68.01983 10.3069,-67.95118 -0.7622,0.0268 -4.0463,4.41434 -7.2979,9.75 -8.6497,14.19357 -16.2793,24.68105 -61.6196,84.70118 -5.4012,7.15 -11.3938,14.8 -13.3167,17 -4.4184,5.05495 -4.992,4.56179 -10.4667,-9 -2.220199,-5.5 -9.015399,-22.29576 -15.100199,-37.32391 -10.528,-26.00141 -20.2817,-53.37837 -21.6878,-60.87353 -0.5623,-2.99716 -2.7101,-5.32276 -3.8569,-4.17604 -0.2054,0.20547 -1.7587,8.47357 -3.4516,18.37354 -9.9679,58.29026 -25.7101,149.9539 -27.447,159.81745 -0.7571,4.29963 -1.7737,8.192 -2.259,8.64971 -1.05,0.99012 -22.5634002,1.93655 -30.3522002,1.33527 z m 266.6947992,-0.80944 c -28.3898,-7.16759 -39.9593,-28.94074 -36.748,-69.15771 1.214,-15.20315 2.8799,-24.07767 6.5997,-35.15895 5.2859,-15.74634 14.0319,-29.04729 25.1993,-38.32327 6.9364,-5.76158 11.9409,-8.45252 22.3819,-12.03485 8.6122,-2.95486 10.5651,-3.23723 24.9992,-3.61452 9.464,-0.24738 17.7706,0.0374 21,0.71987 19.7244,4.16854 31.7453,14.38808 37.1262,31.56277 3.0981,9.88802 2.9823,31.41694 -0.2499,46.48615 -9.6147,44.82594 -26.9196,68.305 -57.5335,78.06084 -9.1071,2.90217 -33.7329,3.74251 -42.7749,1.45967 z m 37.9673,-33.83718 c 13.9833,-7.08586 23.7302,-28.20179 26.3367,-57.05607 2.3367,-25.86715 -4.4753,-34.97732 -25.9842,-34.7509 -13.7888,0.14515 -23.6866,7.13703 -30.6496,21.6511 -4.3207,9.00648 -7.0606,20.2025 -8.3203,34 -1.6527,18.10137 1.0123,29.5603 8.0925,34.79505 7.0155,5.18698 21.6839,5.84091 30.5249,1.36082 z m 102.6423,34.66088 c -3.391,-0.22429 -6.6404,-0.9801 -7.2209,-1.67959 -0.8564,-1.03198 -5.9263,-23.6655 -11.1187,-49.63716 -0.4948,-2.475 -2.5168,-12.15 -4.4934,-21.5 -1.9765,-9.35 -5.1345,-24.425 -7.0177,-33.5 -1.8831,-9.075 -4.7915,-22.94882 -6.4631,-30.8307 -1.6716,-7.88189 -2.792,-14.73073 -2.4898,-15.21964 1.1978,-1.93815 18.9979,-6.21609 31.1363,-7.4831 7.4154,-0.77402 7.34,-0.86748 9.6994,12.03344 0.9052,4.95 3.8948,21.09831 6.6434,35.88514 5.137,27.63546 7.9898,47.52724 7.9898,55.71 0,9.22747 1.8019,13.05256 4.1668,8.84534 0.4453,-0.79226 3.0836,-6.84048 5.8628,-13.44048 2.7793,-6.6 13.4479,-28.2 23.7082,-48 10.2603,-19.8 20.1701,-39.00601 22.0218,-42.68001 4.7242,-9.37318 4.7445,-9.38419 14.8342,-8.0342 11.5117,1.54025 24.4354,5.12674 25.1459,6.97833 0.3168,0.82544 0.023,2.38664 -0.6534,3.46933 -1.3232,2.11868 -44.5956,79.58152 -72.9081,130.51413 -5.2732,9.48617 -10.283,17.44808 -11.1329,17.69314 -2.5296,0.72935 -21.0677,1.3154 -27.7106,0.87603 z"
         id="path3113"
         inkscape:connector-curvature="0" />
    </g>
  </g>
</svg>
