<?xml version="1.0" encoding="UTF-8" standalone="no"?>
<!-- Created with Inkscape (http://www.inkscape.org/) -->

<svg
   xmlns:dc="http://purl.org/dc/elements/1.1/"
   xmlns:cc="http://creativecommons.org/ns#"
   xmlns:rdf="http://www.w3.org/1999/02/22-rdf-syntax-ns#"
   xmlns:svg="http://www.w3.org/2000/svg"
   xmlns="http://www.w3.org/2000/svg"
   xmlns:sodipodi="http://sodipodi.sourceforge.net/DTD/sodipodi-0.dtd"
   xmlns:inkscape="http://www.inkscape.org/namespaces/inkscape"
   width="502.63681"
   height="502.24759"
   id="svg6998"
   version="1.1"
   inkscape:version="0.48.4 r9939"
   sodipodi:docname="Nuevo documento 27">
  <sodipodi:namedview
     id="base"
     pagecolor="#ffffff"
     bordercolor="#666666"
     borderopacity="1.0"
     inkscape:pageopacity="0.0"
     inkscape:pageshadow="2"
     inkscape:zoom="0.49497475"
     inkscape:cx="293.71878"
     inkscape:cy="182.46173"
     inkscape:document-units="px"
     inkscape:current-layer="layer1"
     showgrid="false"
     inkscape:window-width="1301"
     inkscape:window-height="744"
     inkscape:window-x="59"
     inkscape:window-y="24"
     inkscape:window-maximized="1"
     fit-margin-top="0"
     fit-margin-left="0"
     fit-margin-right="0"
     fit-margin-bottom="0" />
  <defs
     id="defs7000" />
  <metadata
     id="metadata7003">
    <rdf:RDF>
      <cc:Work
         rdf:about="">
        <dc:format>image/svg+xml</dc:format>
        <dc:type
           rdf:resource="http://purl.org/dc/dcmitype/StillImage" />
        <dc:title></dc:title>
      </cc:Work>
    </rdf:RDF>
  </metadata>
  <g
     id="layer1"
     inkscape:groupmode="layer"
     inkscape:label="Capa 1"
     transform="translate(-146.93483,-28.169075)">
    <path
       style="fill:#2d3e5c"
       d="m 191.64283,528.66761 c -10.2083,-2.4807 -18.9301,-7.5125 -27.0156,-15.586 -23.2966,-23.2617 -23.0992,-59.2626 0.4525,-82.5399 l 6.6119,-6.5348 8.4756,-4.1055 8.4756,-4.1055 8.5815,-1.1891 8.5814,-1.189 8.4186,1.196 8.4185,1.1961 8.5,4.1007 8.5,4.1006 7.0231,7.0326 7.0231,7.0327 3.83,7.7832 3.83,7.7832 1.5375,9.1185 1.5375,9.1185 -1.5148,9.2691 -1.5148,9.2692 -3.8527,7.8291 -3.8527,7.8292 -7.0231,7 -7.0231,7 -7.5,3.7369 c -13.3798,6.6665 -26.5472,8.2447 -40.5,4.8542 z m 192.5,0.033 c -20.2336,-5.2924 -35.2487,-19.4633 -42.0394,-39.6759 l -2.3343,-6.9479 0.062,-10.1158 0.062,-10.1158 1.7632,-5.3842 c 5.8039,-17.7229 15.8955,-29.3935 32.3637,-37.4276 l 6.623,-3.2311 8.5506,-1.1878 8.5506,-1.1877 8.423,1.1533 8.4231,1.1532 8.0393,3.837 c 15.1183,7.2157 26.2856,20.3952 31.4253,37.0876 l 2.3343,7.5811 -0.4567,9.9189 c -0.6951,15.0994 -5.8118,27.4305 -15.6688,37.7619 -8.6353,9.0508 -18.6365,14.6948 -30.3813,17.145 -9.178,1.9148 -17.4752,1.7973 -25.7394,-0.3642 z m 192,-0.086 c -3.575,-0.9398 -9.2,-3.0077 -12.5,-4.5955 l -6,-2.8869 -8.0498,-8.0278 -8.0497,-8.0278 -3.7505,-7.7914 -3.7505,-7.7915 -1.1421,-8.5356 -1.1421,-8.5357 1.1137,-8.8233 1.1137,-8.8232 3.6996,-7.587 c 6.2221,-12.7602 17.9869,-23.9155 30.9577,-29.354 2.75,-1.1531 8.7125,-2.6043 13.25,-3.225 l 8.25,-1.1286 8.1286,1.1129 c 13.8219,1.8925 23.985,7.1526 34.3692,17.7882 8.8278,9.0415 16.5022,27.4725 16.5022,39.6318 0,6.7828 -3.4775,19.5135 -7.3358,26.8556 l -4.0954,7.7933 -6.8729,6.8728 -6.8728,6.8728 -7.2085,3.5151 c -13.4799,6.5731 -27.3566,8.1758 -40.6146,4.6908 z m -374,-122.7629 c -2.6684,-1.0227 -2.9691,-2.5759 -2.9847,-15.418 l -0.015,-12.643 -1.5817,-0.607 c -0.87,-0.3339 -4.155,-0.607 -7.3,-0.607 -5.4839,0 -8.1183,-1.1378 -8.1183,-3.5062 0,-0.6085 4.0815,-8.2118 9.07,-16.8964 4.9885,-8.6846 8.8277,-16.4218 8.5314,-17.1938 -0.2962,-0.772 -1.5808,-1.4036 -2.8546,-1.4036 -2.733,0 -12.4214,-3.2973 -18.1802,-6.1873 -6.932,-3.4789 -14.7294,-10.049 -19.3599,-16.3127 -22.0362,-29.8091 -13.1667,-68.9484 19.7933,-87.34406 1.375,-0.76741 6.325,-2.61459 11,-4.10485 l 8.5,-2.70954 0.5,-25.5894 c 0.275,-14.07417 0.8745,-25.96352 1.3322,-26.42078 0.4577,-0.45727 17.1077,-1.05639 37,-1.33139 l 36.1678,-0.5 0.5,-41.70092 c 0.3142,-26.199515 0.8774,-42.077895 1.5151,-42.715045 0.5583,-0.55777 6.1833,-1.14236 12.5,-1.29908 l 11.4849,-0.28495 0.2574,-6.00001 c 0.1416,-3.3 0.4877,-7.0125 0.7691,-8.25 l 0.5116,-2.25 2.2232,0 c 1.2228,0 9.2535,4.05 17.846,9 8.5926,4.95 16.125,9.00001 16.7388,9.00001 0.6137,0 1.3666,-1.2375 1.673,-2.75001 1.4556,-7.18353 4.9932,-16.66169 8.3162,-22.28054 5.0734,-8.57897 15.2733,-17.93154 24.3176,-22.29753 7.2931,-3.52065 19.7393,-6.69551 26.055,-6.64625 5.9969,0.0468 19.351,3.63184 26.3346,7.06985 l 6.8817,3.38784 7.0481,7.00831 c 7.6924,7.64891 12.1351,15.09573 15.43,25.86365 l 2.0977,6.85534 0,8.75562 0,8.7556 -2.3453,7.389625 c -2.9119,9.17463 -4.8336,12.94287 -10.0515,19.70953 -7.221,9.36426 -22.0939,18.91294 -32.3398,20.76276 -2.0699,0.3737 -4.5509,1.08605 -5.5134,1.58301 l -1.75,0.90356 0,16.98956 0,16.98957 2.5651,0.97525 c 1.4108,0.53639 4.9627,0.97525 7.893,0.97525 l 5.328,0 0.5756,1.5 c 0.8122,2.11676 0.3055,3.18724 -9.5973,20.27446 -4.8687,8.40096 -8.5809,15.71346 -8.2492,16.25 0.3316,0.53655 1.4137,0.97554 2.4048,0.97554 2.8726,0 16.2034,4.50806 20.58,6.95953 13.9358,7.80579 23.6748,19.83439 27.966,34.54049 0.9629,3.3 2.077,7.125 2.4757,8.5 l 0.725,2.5 17.9167,0 17.9166,0 0.5,-7.397 0.5,-7.3969 1.5636,-0.9804 1.5636,-0.9803 15.6545,9.1273 c 8.61,5.02 16.5164,9.1273 17.5698,9.1273 2.052,0 3.0937,-2.471 3.1619,-7.5 0.06,-4.3893 5.1033,-15.5081 10.4049,-22.9377 7.3163,-10.2528 17.4873,-17.30473 30.9371,-21.44966 l 6.8553,-2.11266 8.7893,0 8.7894,0 6.8553,2.11388 c 22.8845,7.05656 37.1688,22.94544 41.9263,46.63614 l 1.8575,9.25 -1.8406,9.25 c -4.3884,22.0531 -18.9567,39.5217 -38.2747,45.8947 -3.079,1.0158 -6.209,2.3538 -6.9556,2.9735 l -1.3576,1.1267 0,31.6864 0,31.6864 -1.4193,1.9411 -1.4194,1.9412 -197.3306,0.1749 c -108.5319,0.096 -198.0057,-0.084 -198.8307,-0.3999 z m 385.7674,-39.275 0.2675,-26.5 -1.7086,-1.25 c -0.9397,-0.6875 -2.86,-1.2558 -4.2674,-1.2629 -5.9405,-0.03 -17.707,-4.8463 -26.0589,-10.6666 -10.7638,-7.5011 -20.7717,-22.2166 -22.5203,-33.1134 -1.1454,-7.1374 -1.5287,-8.2071 -2.9411,-8.2071 -0.7828,0 -6.4263,2.9256 -12.5411,6.5014 -21.3925,12.5099 -22.0428,12.7912 -23.6885,10.2486 -0.4449,-0.6875 -1.034,-4.175 -1.309,-7.75 l -0.5,-6.5 -17.9803,0 -17.9804,0 -3.0805,8.5 c -3.9189,10.8134 -5.3153,13.4129 -10.8634,20.2238 -7.238,8.8854 -16.1019,14.785 -28.3254,18.8527 l -6.4332,2.1409 -9.6966,0 -9.6965,0 -6.9357,-2.1422 c -3.8146,-1.1782 -9.656,-3.6636 -12.9809,-5.523 -6.9106,-3.8646 -16.8331,-13.7507 -21.0411,-20.9637 -3.0855,-5.289 -7.486,-17.6994 -7.486,-21.1123 0,-1.1517 -0.5625,-2.8507 -1.25,-3.7756 l -1.25,-1.6816 -16.3274,9.5499 c -10.0662,5.8878 -17.1605,9.4312 -18.5,9.2405 l -2.1726,-0.3094 -0.2574,-6 c -0.1415,-3.3 -0.4876,-7.0125 -0.769,-8.25 l -0.5117,-2.25 -16.2898,0 -16.2898,0 -1.5578,1.25 c -0.8569,0.6875 -2.0514,3.8305 -2.6546,6.9846 -2.8367,14.833 -15.3951,31.2852 -29.2336,38.2977 -5.8814,2.9803 -15.7673,6.4632 -18.4016,6.483 -1.1191,0.01 -2.6684,0.4165 -3.4429,0.9068 l -1.4083,0.8915 5.9083,10.3112 c 8.6488,15.094 9.1746,16.0448 10.9753,19.8459 l 1.6442,3.4707 -0.9581,1.5293 c -0.6028,0.9622 -2.7741,1.6262 -5.8556,1.7906 -2.6937,0.1437 -5.9101,0.4898 -7.1476,0.769 l -2.25,0.5078 0,7.9835 0,7.9836 187.75,-0.2526 187.75,-0.2526 0.2674,-26.5 z m -339.7521,-12.7019 -2.0153,-1.4115 0,-4.7433 c 0,-2.6088 0.54,-5.2833 1.2,-5.9433 l 1.2,-1.2 17.6,0 17.6,0 1.2,1.2 c 0.66,0.66 1.2,3.3049 1.2,5.8775 l 0,4.6776 -1.6536,1.3724 -1.6536,1.3725 -16.3311,0.1048 -16.3311,0.1049 -2.0153,-1.4116 z m -24.7931,-36.0961 c 8.4894,-4.1393 15.652,-11.0792 19.9157,-19.2967 l 3.3235,-6.4053 -0.051,-12.5 -0.051,-12.5 -2.4298,-4.5925 c -8.3794,-15.8376 -22.5403,-24.9075 -38.8883,-24.9075 l -6.9505,0 -6.4405,2.3378 c -7.4096,2.6895 -15.2829,8.1348 -19.4739,13.4683 -17.9941,22.8998 -8.3184,56.2339 19.2394,66.2823 l 5.084,1.8538 10,-0.2313 10,-0.2314 6.7222,-3.2775 z m 116.5987,-46.2122 c 0.5063,-3.9283 3.8624,-14.1498 5.9068,-17.9898 5.821,-10.9338 13.6737,-19.2055 23.074,-24.30486 6.0995,-3.3088 18.5677,-7.69516 21.8735,-7.69516 1.4564,0 2.3248,-0.59276 2.3248,-1.5869 0,-0.87279 -3.8736,-8.18529 -8.6079,-16.25 -5.0928,-8.67525 -8.666,-15.88819 -8.75,-17.6631 l -0.1421,-3 4.5,-0.25374 c 2.475,-0.13956 5.9728,-0.49938 7.7729,-0.7996 l 3.2729,-0.54587 -0.2729,-17.59255 -0.2729,-17.59256 -1.5,-0.74041 c -0.825,-0.40723 -3.75,-1.27108 -6.5,-1.91966 -14.6476,-3.45462 -29.7993,-15.80136 -36.8836,-30.05561 -2.4989,-5.02796 -5.6138,-14.551535 -5.6317,-17.218465 -0.01,-1.25485 -0.4166,-2.91552 -0.9072,-3.69037 l -0.8918,-1.40883 -10.1768,5.90883 c -5.5972,3.249845 -11.8264,6.921635 -13.8428,8.159515 -4.0863,2.50866 -9.9615,5.24931 -11.253,5.24931 -1.7164,0 -2.9131,-4.03715 -2.9131,-9.82727 l 0,-5.958745 -1.5818,-0.60699 c -2.2243,-0.85358 -8.6795,-0.72803 -10.1355,0.19713 l -1.2173,0.7735 -0.2827,41.162085 -0.2827,41.16207 -1.2987,1.29912 -1.2988,1.29911 -35.9718,0.29719 -35.9718,0.29719 0.2706,20.12364 0.2705,20.12364 7.5,2.35252 c 13.176,4.13291 20.2288,8.45897 28.4677,17.46154 6.1711,6.7432 12.7409,19.2037 13.8473,26.2634 0.3378,2.1555 1.1926,4.2861 1.8996,4.7346 0.707,0.4486 8.5079,0.8225 17.3354,0.831 l 16.05,0.015 1.2,-1.2 c 0.6744,-0.6744 1.2,-3.9062 1.2,-7.3776 l 0,-6.1775 1.4245,-1.1823 1.4246,-1.1822 3.8254,1.8927 c 4.4416,2.1975 9.5076,5.061 21.3255,12.0536 4.675,2.7661 9.175,4.9446 10,4.8411 0.825,-0.1036 1.6444,-1.3087 1.8209,-2.6781 z M 193.32933,144.45887 c -2.9225,-0.48621 -8.7725,-2.56291 -13,-4.61488 l -7.6865,-3.73085 -8.0955,-8.01823 -8.0954,-8.01822 -3.2053,-6.86015 c -3.7248,-7.97195 -5.068,-13.372905 -5.7908,-23.284995 l -0.521,-7.14512 1.6527,-7.26643 c 5.3655,-23.58999 22.3398,-40.24945 46.2527,-45.39468 9.1891,-1.97718 12.9278,-1.92141 22.9331,0.34204 18.734,4.23814 34.5737,17.63222 42.1113,35.60933 1.153,2.75 2.6055,8.72153 3.2277,13.27008 l 1.1314,8.27009 -1.0674,7.72991 c -1.9488,14.113435 -7.8427,25.212665 -18.6443,35.110315 -13.6892,12.54367 -31.1943,17.33059 -51.2027,14.00179 z m 384.9188,0.10183 c -7.3094,-1.54535 -13.2601,-4.09559 -20.3305,-8.71282 -23.9224,-15.62229 -32.6697,-48.085665 -19.9813,-74.155705 l 3.7065,-7.61549 7.5,-7.52379 7.5,-7.52379 7.5,-3.59979 c 4.2925,-2.06027 11.4338,-4.38252 16.6983,-5.43001 l 9.1983,-1.83023 9.2104,1.76562 c 5.3754,1.03045 12.3513,3.25608 16.7538,5.34523 l 7.5433,3.57962 7.6565,7.65654 7.6566,7.65653 3.509,7.45203 c 1.93,4.09862 4.3401,11.61454 5.3557,16.70204 l 1.8466,9.25001 -1.8602,9.2029 c -2.2352,11.057795 -4.4321,16.343455 -10.0988,24.297095 -7.5175,10.55128 -16.4666,17.29544 -28.4695,21.45502 l -6.5,2.25255 -10,0.35279 c -5.5,0.19403 -11.9776,-0.0653 -14.3947,-0.57635 z"
       id="path7082"
       inkscape:connector-curvature="0" />
  </g>
</svg>
